<svg width="324" height="323" viewBox="0 0 324 323" fill="none" xmlns="http://www.w3.org/2000/svg">
<path d="M162 322C250.915 322 323 250.145 323 161.5C323 72.8553 250.915 1 162 1C73.0851 1 1 72.8553 1 161.5C1 250.145 73.0851 322 162 322Z" fill="url(#paint0_linear_10_27)" stroke="black" stroke-width="2"/>
<g filter="url(#filter0_d_10_27)">
<path d="M54.5938 218.477C53.2031 211.758 52.3281 207.562 51.9688 205.891C51.625 204.219 51.3594 202.945 51.1719 202.07C50.9844 201.195 51.0391 200.609 51.3359 200.312C51.6484 200 52.0078 199.844 52.4141 199.844C53.1953 199.844 53.6797 200.5 53.8672 201.812C54.0703 203.125 54.3125 204.57 54.5938 206.148C54.875 207.711 55.1719 209.352 55.4844 211.07C55.8125 212.789 56.1484 214.539 56.4922 216.32C56.8359 218.086 57.1719 219.82 57.5 221.523C57.8438 223.211 58.1797 224.82 58.5078 226.352C58.8359 227.883 59.1406 229.266 59.4219 230.5C59.7656 232.062 60.0469 233.258 60.2656 234.086C60.7031 232.305 61.2969 229.961 62.0469 227.055C63 223.383 63.7422 220.484 64.2734 218.359C64.8203 216.234 65.3281 214.188 65.7969 212.219C66.7969 207.969 67.4688 204.664 67.8125 202.305C67.9531 201.133 68.4609 200.562 69.3359 200.594C69.9609 200.625 70.3594 201.047 70.5312 201.859C71.3125 205.391 72.1094 209.203 72.9219 213.297C73.7344 217.391 74.3047 220.273 74.6328 221.945C74.9766 223.617 75.2969 225.203 75.5938 226.703C75.9062 228.188 76.1875 229.531 76.4375 230.734C76.7656 232.281 77.0469 233.477 77.2812 234.32C77.5469 233.211 77.8438 231.969 78.1719 230.594C78.6094 228.688 79.0703 226.672 79.5547 224.547C80.0391 222.422 80.5312 220.25 81.0312 218.031C81.5312 215.812 82 213.672 82.4375 211.609C83.3906 207.109 84.0312 203.719 84.3594 201.438C84.5312 200.25 85.0156 199.688 85.8125 199.75C86.5 199.781 86.8438 200.203 86.8438 201.016C86.8438 201.328 86.7422 201.914 86.5391 202.773C86.3359 203.633 86.0391 204.938 85.6484 206.688C85.2734 208.422 84.8828 210.211 84.4766 212.055C84.0703 213.883 83.6562 215.734 83.2344 217.609C82.8125 219.469 82.3984 221.273 81.9922 223.023C81.6016 224.773 81.2266 226.43 80.8672 227.992C80.5078 229.555 80.1797 230.945 79.8828 232.164C79.2266 234.867 78.8125 236.414 78.6406 236.805C78.2969 237.633 77.8359 238.047 77.2578 238.047C76.5703 238.047 76.1094 237.633 75.875 236.805C74.6562 232.508 73.6094 228.211 72.7344 223.914C71.875 219.602 71.2656 216.531 70.9062 214.703C70.5469 212.922 70 210.039 69.2656 206.055C68.1562 211.102 67.2031 215.203 66.4062 218.359C65.5469 221.75 64.9141 224.281 64.5078 225.953C63.4922 230.109 62.6406 233.727 61.9531 236.805C61.875 237.195 61.6797 237.5 61.3672 237.719C61.0547 237.938 60.7344 238.047 60.4062 238.047C59.625 238.047 59.1172 237.633 58.8828 236.805C57.4297 231.305 56 225.195 54.5938 218.477ZM100.414 227.875C100.445 225.156 99.875 223.297 98.7031 222.297C98.2344 221.875 97.6641 221.664 96.9922 221.664C96.3203 221.664 95.7656 221.789 95.3281 222.039C94.8906 222.289 94.5 222.625 94.1562 223.047C93.8281 223.469 93.5469 223.953 93.3125 224.5C93.0938 225.031 92.9141 225.578 92.7734 226.141C92.6328 226.734 92.5312 227.32 92.4688 227.898L95.6797 228.039C97.7734 228.039 99.3516 227.984 100.414 227.875ZM92.375 229.914C92.4062 232.07 92.7969 233.719 93.5469 234.859C94.3594 236.078 95.5078 236.688 96.9922 236.688C98.3516 236.688 99.3438 236.016 99.9688 234.672C100.359 233.797 100.844 233.359 101.422 233.359C101.688 233.359 101.906 233.445 102.078 233.617C102.266 233.789 102.352 234.094 102.336 234.531C102.32 234.953 102.164 235.414 101.867 235.914C101.586 236.414 101.188 236.859 100.672 237.25C99.5469 238.125 98.1953 238.562 96.6172 238.562C94.9141 238.562 93.4453 237.836 92.2109 236.383C90.9141 234.852 90.2656 233.031 90.2656 230.922C90.2656 228.812 90.4453 227.102 90.8047 225.789C91.1797 224.461 91.6719 223.359 92.2812 222.484C93.4688 220.719 94.9531 219.836 96.7344 219.836C99.0156 219.836 100.617 220.734 101.539 222.531C102.18 223.781 102.523 225.617 102.57 228.039C102.586 228.727 102.477 229.188 102.242 229.422C102.008 229.656 101.531 229.773 100.812 229.773L92.375 229.914ZM107.305 237.133L107.516 216.859V213.812C107.516 212.828 107.508 211.867 107.492 210.93C107.477 209.992 107.461 209.055 107.445 208.117C107.43 207.18 107.406 206.211 107.375 205.211C107.281 203.039 107.195 201.297 107.117 199.984C107.039 198.656 107.039 197.883 107.117 197.664C107.211 197.445 107.328 197.273 107.469 197.148C107.688 196.93 108.016 196.82 108.453 196.82C109.219 196.82 109.602 197.469 109.602 198.766L109.484 208.586V213.297C109.484 214.25 109.477 215.258 109.461 216.32C109.461 217.383 109.469 218.445 109.484 219.508C109.5 221.727 109.508 223.367 109.508 224.43C109.992 223.211 110.688 222.172 111.594 221.312C112.734 220.203 113.93 219.648 115.18 219.648C117.555 219.648 119.109 220.859 119.844 223.281C120.078 224.062 120.195 225.008 120.195 226.117C120.195 227.211 120.031 228.305 119.703 229.398C119.391 230.492 118.961 231.5 118.414 232.422C117.867 233.328 117.227 234.148 116.492 234.883C115.758 235.602 114.984 236.219 114.172 236.734C112.141 238.031 110.234 238.617 108.453 238.492C107.688 238.43 107.305 237.977 107.305 237.133ZM111.312 224.242C110.812 224.867 110.398 225.547 110.07 226.281C109.758 227.016 109.578 227.703 109.531 228.344C109.5 228.969 109.477 229.516 109.461 229.984C109.445 230.438 109.43 230.82 109.414 231.133C109.414 231.445 109.414 231.703 109.414 231.906V232.445C109.414 232.836 109.445 234.219 109.508 236.594C110.211 236.625 110.969 236.422 111.781 235.984C112.797 235.453 113.641 234.906 114.312 234.344C115 233.781 115.617 233.102 116.164 232.305C117.414 230.477 118.039 228.406 118.039 226.094C118.039 224.719 117.773 223.703 117.242 223.047C116.711 222.391 116.047 222.062 115.25 222.062C114.469 222.062 113.742 222.273 113.07 222.695C112.414 223.102 111.828 223.617 111.312 224.242ZM150.594 208.891C151.094 210.797 151.344 212.906 151.344 215.219C151.344 217.516 151.148 219.656 150.758 221.641C150.367 223.609 149.82 225.438 149.117 227.125C148.414 228.797 147.57 230.312 146.586 231.672C145.617 233.016 144.539 234.164 143.352 235.117C140.898 237.086 138.234 238.07 135.359 238.07C134.906 238.07 134.609 237.93 134.469 237.648C134.344 237.352 134.281 237 134.281 236.594V234.578C134.281 233.609 134.273 232.438 134.258 231.062C134.258 229.672 134.25 228.133 134.234 226.445C134.234 224.742 134.219 222.984 134.188 221.172C134.172 219.344 134.148 217.508 134.117 215.664C134.102 213.805 134.078 212.031 134.047 210.344C133.953 206.844 133.844 204.086 133.719 202.07C133.641 201.008 134.109 200.414 135.125 200.289C136.625 200.07 137.859 199.961 138.828 199.961C145.109 199.961 149.031 202.938 150.594 208.891ZM136.625 235.867C138.391 235.805 140.148 235.047 141.898 233.594C145.148 230.891 147.32 226.859 148.414 221.5C148.789 219.656 148.977 217.57 148.977 215.242C148.977 212.898 148.688 210.867 148.109 209.148C147.547 207.414 146.812 206.031 145.906 205C144.203 203.062 142.008 202.094 139.32 202.094C138.148 202.094 137.195 202.219 136.461 202.469C136.336 204.078 136.273 206.336 136.273 209.242C136.273 212.727 136.281 215.391 136.297 217.234C136.312 219.078 136.328 220.883 136.344 222.648C136.375 224.414 136.398 226.109 136.414 227.734C136.445 229.344 136.477 230.789 136.508 232.07C136.555 233.68 136.594 234.945 136.625 235.867ZM165.477 227.875C165.508 225.156 164.938 223.297 163.766 222.297C163.297 221.875 162.727 221.664 162.055 221.664C161.383 221.664 160.828 221.789 160.391 222.039C159.953 222.289 159.562 222.625 159.219 223.047C158.891 223.469 158.609 223.953 158.375 224.5C158.156 225.031 157.977 225.578 157.836 226.141C157.695 226.734 157.594 227.32 157.531 227.898L160.742 228.039C162.836 228.039 164.414 227.984 165.477 227.875ZM157.438 229.914C157.469 232.07 157.859 233.719 158.609 234.859C159.422 236.078 160.57 236.688 162.055 236.688C163.414 236.688 164.406 236.016 165.031 234.672C165.422 233.797 165.906 233.359 166.484 233.359C166.75 233.359 166.969 233.445 167.141 233.617C167.328 233.789 167.414 234.094 167.398 234.531C167.383 234.953 167.227 235.414 166.93 235.914C166.648 236.414 166.25 236.859 165.734 237.25C164.609 238.125 163.258 238.562 161.68 238.562C159.977 238.562 158.508 237.836 157.273 236.383C155.977 234.852 155.328 233.031 155.328 230.922C155.328 228.812 155.508 227.102 155.867 225.789C156.242 224.461 156.734 223.359 157.344 222.484C158.531 220.719 160.016 219.836 161.797 219.836C164.078 219.836 165.68 220.734 166.602 222.531C167.242 223.781 167.586 225.617 167.633 228.039C167.648 228.727 167.539 229.188 167.305 229.422C167.07 229.656 166.594 229.773 165.875 229.773L157.438 229.914ZM178.484 237.297C178.312 237.828 177.906 238.094 177.266 238.094C176.641 238.094 176.258 237.875 176.117 237.438C175.695 236.156 175.289 234.883 174.898 233.617C174.508 232.352 174.109 231.109 173.703 229.891C172.781 227.016 171.883 224.641 171.008 222.766C170.805 222.281 170.703 221.852 170.703 221.477C170.703 221.086 170.812 220.773 171.031 220.539C171.266 220.305 171.523 220.188 171.805 220.188C172.102 220.188 172.406 220.297 172.719 220.516C173.031 220.719 173.32 221.266 173.586 222.156C173.852 223.031 174.188 224.219 174.594 225.719C175.016 227.203 175.422 228.641 175.812 230.031C176.484 232.469 176.992 234.227 177.336 235.305C177.555 234.508 177.781 233.75 178.016 233.031C178.328 232.031 178.656 230.984 179 229.891C179.828 227.234 180.555 224.453 181.18 221.547C181.383 220.672 181.836 220.234 182.539 220.234C182.852 220.234 183.117 220.336 183.336 220.539C183.57 220.727 183.688 220.969 183.688 221.266C183.688 221.703 183.531 222.328 183.219 223.141C182.906 223.953 182.531 224.969 182.094 226.188C181.656 227.406 181.227 228.641 180.805 229.891C179.836 232.766 179.062 235.234 178.484 237.297ZM196.883 227.875C196.914 225.156 196.344 223.297 195.172 222.297C194.703 221.875 194.133 221.664 193.461 221.664C192.789 221.664 192.234 221.789 191.797 222.039C191.359 222.289 190.969 222.625 190.625 223.047C190.297 223.469 190.016 223.953 189.781 224.5C189.562 225.031 189.383 225.578 189.242 226.141C189.102 226.734 189 227.32 188.938 227.898L192.148 228.039C194.242 228.039 195.82 227.984 196.883 227.875ZM188.844 229.914C188.875 232.07 189.266 233.719 190.016 234.859C190.828 236.078 191.977 236.688 193.461 236.688C194.82 236.688 195.812 236.016 196.438 234.672C196.828 233.797 197.312 233.359 197.891 233.359C198.156 233.359 198.375 233.445 198.547 233.617C198.734 233.789 198.82 234.094 198.805 234.531C198.789 234.953 198.633 235.414 198.336 235.914C198.055 236.414 197.656 236.859 197.141 237.25C196.016 238.125 194.664 238.562 193.086 238.562C191.383 238.562 189.914 237.836 188.68 236.383C187.383 234.852 186.734 233.031 186.734 230.922C186.734 228.812 186.914 227.102 187.273 225.789C187.648 224.461 188.141 223.359 188.75 222.484C189.938 220.719 191.422 219.836 193.203 219.836C195.484 219.836 197.086 220.734 198.008 222.531C198.648 223.781 198.992 225.617 199.039 228.039C199.055 228.727 198.945 229.188 198.711 229.422C198.477 229.656 198 229.773 197.281 229.773L188.844 229.914ZM206.867 207.344C206.836 209.25 206.805 211.312 206.773 213.531C206.758 215.75 206.75 219.172 206.75 223.797C206.75 228.422 206.812 232.703 206.938 236.641C206.953 237.156 206.828 237.547 206.562 237.812C206.312 238.078 206.008 238.211 205.648 238.211C205.289 238.211 204.969 238.094 204.688 237.859C204.406 237.609 204.289 237.055 204.336 236.195C204.383 235.336 204.43 234.047 204.477 232.328C204.539 230.594 204.594 228.719 204.641 226.703C204.719 222.266 204.758 218.555 204.758 215.57C204.758 212.57 204.75 210.32 204.734 208.82C204.734 207.32 204.727 205.938 204.711 204.672C204.68 202.297 204.602 200.125 204.477 198.156C204.445 197.656 204.547 197.273 204.781 197.008C205.016 196.727 205.312 196.586 205.672 196.586C206.031 196.586 206.359 196.727 206.656 197.008C206.969 197.273 207.109 197.812 207.078 198.625C207.047 199.438 207.008 200.617 206.961 202.164C206.93 203.711 206.898 205.438 206.867 207.344ZM220.625 222.227C220.109 221.852 219.5 221.664 218.797 221.664C218.109 221.664 217.477 221.859 216.898 222.25C216.336 222.625 215.859 223.156 215.469 223.844C214.672 225.219 214.273 227.109 214.273 229.516C214.273 231.906 214.656 233.672 215.422 234.812C216.188 235.953 217.211 236.523 218.492 236.523C219.898 236.523 221.023 235.719 221.867 234.109C222.617 232.672 222.992 230.906 222.992 228.812C222.992 225.594 222.203 223.398 220.625 222.227ZM218.469 238.516C217.578 238.531 216.742 238.352 215.961 237.977C215.195 237.586 214.531 236.984 213.969 236.172C212.734 234.453 212.117 232.008 212.117 228.836C212.117 225.992 212.781 223.75 214.109 222.109C215.359 220.547 217.016 219.766 219.078 219.766C220.812 219.766 222.25 220.516 223.391 222.016C224.562 223.609 225.148 225.797 225.148 228.578C225.148 231.672 224.469 234.141 223.109 235.984C221.891 237.641 220.344 238.484 218.469 238.516ZM232.508 238.492C232.461 239.555 232.438 240.609 232.438 241.656C232.438 242.703 232.555 245.102 232.789 248.852C232.789 249.445 232.469 249.844 231.828 250.047C231.656 250.094 231.484 250.117 231.312 250.117C231.156 250.117 231 250.086 230.844 250.023C230.703 249.977 230.578 249.891 230.469 249.766C230.203 249.5 230.094 249.055 230.141 248.43C230.297 246.32 230.375 243.195 230.375 239.055C230.375 231.695 230.289 226.039 230.117 222.086C230.086 221.57 230.195 221.156 230.445 220.844C230.711 220.531 231.023 220.375 231.383 220.375C231.742 220.375 232.031 220.508 232.25 220.773C232.484 221.023 232.586 221.359 232.555 221.781C232.508 222.469 232.477 223.07 232.461 223.586C233.008 222.586 233.734 221.75 234.641 221.078C235.781 220.219 237.062 219.789 238.484 219.789C239.906 219.789 241.016 220.32 241.812 221.383C242.625 222.445 243.031 223.812 243.031 225.484C243.031 227.156 242.859 228.578 242.516 229.75C242.172 230.906 241.711 231.945 241.133 232.867C240.57 233.789 239.914 234.594 239.164 235.281C238.43 235.969 237.672 236.547 236.891 237.016C235.344 237.938 233.883 238.43 232.508 238.492ZM232.461 227.734C232.414 231.844 232.438 234.742 232.531 236.43C233.141 236.508 233.844 236.367 234.641 236.008C235.656 235.555 236.5 235.055 237.172 234.508C237.844 233.961 238.453 233.289 239 232.492C240.25 230.664 240.875 228.484 240.875 225.953C240.875 224.594 240.594 223.57 240.031 222.883C239.469 222.18 238.797 221.828 238.016 221.828C237.25 221.828 236.547 222.023 235.906 222.414C235.266 222.789 234.703 223.266 234.219 223.844C233.219 225.062 232.633 226.359 232.461 227.734ZM256.789 227.875C256.82 225.156 256.25 223.297 255.078 222.297C254.609 221.875 254.039 221.664 253.367 221.664C252.695 221.664 252.141 221.789 251.703 222.039C251.266 222.289 250.875 222.625 250.531 223.047C250.203 223.469 249.922 223.953 249.688 224.5C249.469 225.031 249.289 225.578 249.148 226.141C249.008 226.734 248.906 227.32 248.844 227.898L252.055 228.039C254.148 228.039 255.727 227.984 256.789 227.875ZM248.75 229.914C248.781 232.07 249.172 233.719 249.922 234.859C250.734 236.078 251.883 236.688 253.367 236.688C254.727 236.688 255.719 236.016 256.344 234.672C256.734 233.797 257.219 233.359 257.797 233.359C258.062 233.359 258.281 233.445 258.453 233.617C258.641 233.789 258.727 234.094 258.711 234.531C258.695 234.953 258.539 235.414 258.242 235.914C257.961 236.414 257.562 236.859 257.047 237.25C255.922 238.125 254.57 238.562 252.992 238.562C251.289 238.562 249.82 237.836 248.586 236.383C247.289 234.852 246.641 233.031 246.641 230.922C246.641 228.812 246.82 227.102 247.18 225.789C247.555 224.461 248.047 223.359 248.656 222.484C249.844 220.719 251.328 219.836 253.109 219.836C255.391 219.836 256.992 220.734 257.914 222.531C258.555 223.781 258.898 225.617 258.945 228.039C258.961 228.727 258.852 229.188 258.617 229.422C258.383 229.656 257.906 229.773 257.188 229.773L248.75 229.914ZM273.57 221.102C273.57 221.945 273.148 222.43 272.305 222.555C271.273 222.758 270.109 223.641 268.812 225.203C267.422 226.891 266.641 228.555 266.469 230.195C266.406 230.914 266.375 231.57 266.375 232.164C266.375 233.586 266.438 235.078 266.562 236.641C266.594 237.156 266.461 237.547 266.164 237.812C265.883 238.078 265.57 238.211 265.227 238.211C264.898 238.211 264.609 238.094 264.359 237.859C264.109 237.609 264.008 237.242 264.055 236.758C264.102 236.258 264.141 235.688 264.172 235.047C264.203 234.391 264.234 233.703 264.266 232.984C264.297 231.766 264.312 230.406 264.312 228.906C264.312 226.375 264.281 224.5 264.219 223.281C264.156 222.047 264.164 221.336 264.242 221.148C264.32 220.961 264.422 220.812 264.547 220.703C264.812 220.453 265.102 220.328 265.414 220.328C265.742 220.328 266.031 220.445 266.281 220.68C266.547 220.914 266.664 221.219 266.633 221.594C266.617 221.953 266.586 222.312 266.539 222.672C266.508 223.016 266.469 223.445 266.422 223.961C266.328 224.789 266.242 225.672 266.164 226.609C266.805 225 267.719 223.516 268.906 222.156C270.234 220.672 271.391 219.93 272.375 219.93C272.797 219.93 273.102 220.047 273.289 220.281C273.477 220.516 273.57 220.789 273.57 221.102Z" fill="white"/>
</g>
<g filter="url(#filter1_i_10_27)">
<path d="M98.64 128.168C98.64 124.413 99.024 121.896 99.792 120.616C100.56 119.251 102.181 118.568 104.656 118.568C107.301 118.568 108.624 118.909 108.624 119.592C109.221 116.008 113.744 103.251 122.192 81.32C130.725 59.304 135.461 48.2107 136.4 48.04C139.131 47.6133 142.459 47.4 146.384 47.4C148.432 47.4 151.376 47.6133 155.216 48.04C156.155 48.4667 160.848 59.6453 169.296 81.576C177.829 103.421 182.395 116.093 182.992 119.592C182.992 118.909 184.315 118.568 186.96 118.568C189.435 118.568 191.056 119.251 191.824 120.616C192.592 121.896 192.976 124.413 192.976 128.168C192.976 132.52 192.507 134.952 191.568 135.464C190.459 136.488 183.803 137 171.6 137C162.811 137 158.416 136.531 158.416 135.592C156.539 134.483 155.6 130.685 155.6 124.2C155.6 123.261 155.643 122.536 155.728 122.024C155.813 121.512 156.155 121 156.752 120.488C157.349 119.976 158.203 119.72 159.312 119.72C161.787 119.72 163.024 119.891 163.024 120.232C163.365 120.232 163.536 119.805 163.536 118.952C163.536 116.819 162.384 111.955 160.08 104.36C156.581 104.701 151.931 104.872 146.128 104.872C139.899 104.872 135.035 104.701 131.536 104.36C129.232 112.04 128.08 116.947 128.08 119.08C128.08 119.763 128.251 120.147 128.592 120.232C129.104 119.891 130.213 119.72 131.92 119.72C133.2 119.72 134.139 120.019 134.736 120.616C135.419 121.213 135.803 121.811 135.888 122.408C135.973 123.005 136.016 123.987 136.016 125.352C136.016 130.984 135.077 134.397 133.2 135.592C133.2 136.531 128.805 137 120.016 137C107.813 137 101.157 136.488 100.048 135.464C99.1093 134.952 98.64 132.52 98.64 128.168ZM136.144 89.512C139.387 89.256 142.501 89.128 145.488 89.128C148.987 89.128 152.272 89.2987 155.344 89.64C151.504 78.2907 148.304 69.5013 145.744 63.272C143.355 69.16 140.155 77.9067 136.144 89.512Z" fill="white"/>
<path d="M98.64 128.168C98.64 124.413 99.024 121.896 99.792 120.616C100.56 119.251 102.181 118.568 104.656 118.568C107.301 118.568 108.624 118.909 108.624 119.592C109.221 116.008 113.744 103.251 122.192 81.32C130.725 59.304 135.461 48.2107 136.4 48.04C139.131 47.6133 142.459 47.4 146.384 47.4C148.432 47.4 151.376 47.6133 155.216 48.04C156.155 48.4667 160.848 59.6453 169.296 81.576C177.829 103.421 182.395 116.093 182.992 119.592C182.992 118.909 184.315 118.568 186.96 118.568C189.435 118.568 191.056 119.251 191.824 120.616C192.592 121.896 192.976 124.413 192.976 128.168C192.976 132.52 192.507 134.952 191.568 135.464C190.459 136.488 183.803 137 171.6 137C162.811 137 158.416 136.531 158.416 135.592C156.539 134.483 155.6 130.685 155.6 124.2C155.6 123.261 155.643 122.536 155.728 122.024C155.813 121.512 156.155 121 156.752 120.488C157.349 119.976 158.203 119.72 159.312 119.72C161.787 119.72 163.024 119.891 163.024 120.232C163.365 120.232 163.536 119.805 163.536 118.952C163.536 116.819 162.384 111.955 160.08 104.36C156.581 104.701 151.931 104.872 146.128 104.872C139.899 104.872 135.035 104.701 131.536 104.36C129.232 112.04 128.08 116.947 128.08 119.08C128.08 119.763 128.251 120.147 128.592 120.232C129.104 119.891 130.213 119.72 131.92 119.72C133.2 119.72 134.139 120.019 134.736 120.616C135.419 121.213 135.803 121.811 135.888 122.408C135.973 123.005 136.016 123.987 136.016 125.352C136.016 130.984 135.077 134.397 133.2 135.592C133.2 136.531 128.805 137 120.016 137C107.813 137 101.157 136.488 100.048 135.464C99.1093 134.952 98.64 132.52 98.64 128.168ZM136.144 89.512C139.387 89.256 142.501 89.128 145.488 89.128C148.987 89.128 152.272 89.2987 155.344 89.64C151.504 78.2907 148.304 69.5013 145.744 63.272C143.355 69.16 140.155 77.9067 136.144 89.512Z" fill="white"/>
</g>
<path d="M99.792 120.616L100.649 121.13L100.657 121.118L100.664 121.106L99.792 120.616ZM108.624 119.592H107.624L109.61 119.756L108.624 119.592ZM122.192 81.32L121.26 80.9586L121.259 80.9605L122.192 81.32ZM136.4 48.04L136.246 47.052L136.233 47.0539L136.221 47.0561L136.4 48.04ZM155.216 48.04L155.63 47.1296L155.485 47.0637L155.326 47.0461L155.216 48.04ZM169.296 81.576L168.363 81.9355L168.365 81.9398L169.296 81.576ZM182.992 119.592L182.006 119.76L183.992 119.592H182.992ZM191.824 120.616L190.952 121.106L190.959 121.118L190.967 121.13L191.824 120.616ZM191.568 135.464L191.089 134.586L190.981 134.645L190.89 134.729L191.568 135.464ZM158.416 135.592H159.416V135.021L158.925 134.731L158.416 135.592ZM155.728 122.024L156.714 122.188L156.714 122.188L155.728 122.024ZM156.752 120.488L156.101 119.729L156.101 119.729L156.752 120.488ZM163.024 120.232H162.024V121.232H163.024V120.232ZM160.08 104.36L161.037 104.07L160.799 103.285L159.983 103.365L160.08 104.36ZM131.536 104.36L131.633 103.365L130.815 103.285L130.578 104.073L131.536 104.36ZM128.592 120.232L128.349 121.202L128.779 121.309L129.147 121.064L128.592 120.232ZM134.736 120.616L134.029 121.323L134.052 121.347L134.077 121.369L134.736 120.616ZM135.888 122.408L134.898 122.549L134.898 122.549L135.888 122.408ZM133.2 135.592L132.663 134.748L132.2 135.043V135.592H133.2ZM100.048 135.464L100.726 134.729L100.635 134.645L100.527 134.586L100.048 135.464ZM136.144 89.512L135.199 89.1854L134.7 90.6291L136.223 90.5089L136.144 89.512ZM155.344 89.64L155.234 90.6339L156.795 90.8073L156.291 89.3195L155.344 89.64ZM145.744 63.272L146.669 62.8919L145.738 60.627L144.817 62.896L145.744 63.272ZM99.64 128.168C99.64 126.32 99.7348 124.806 99.9166 123.615C100.101 122.407 100.364 121.607 100.649 121.13L98.9345 120.102C98.4524 120.905 98.1392 122.004 97.9394 123.313C97.7372 124.639 97.64 126.261 97.64 128.168H99.64ZM100.664 121.106C101.167 120.212 102.319 119.568 104.656 119.568V117.568C102.044 117.568 99.9532 118.29 98.9204 120.126L100.664 121.106ZM104.656 119.568C105.957 119.568 106.847 119.654 107.382 119.792C107.51 119.825 107.604 119.858 107.671 119.887C107.739 119.916 107.764 119.935 107.764 119.935C107.746 119.921 107.624 119.801 107.624 119.592H109.624C109.624 119.042 109.337 118.623 108.988 118.353C108.669 118.106 108.271 117.956 107.882 117.856C107.095 117.653 106 117.568 104.656 117.568V119.568ZM109.61 119.756C109.891 118.07 111.136 114.076 113.407 107.67C115.663 101.304 118.902 92.6415 123.125 81.6795L121.259 80.9605C117.034 91.9291 113.787 100.611 111.521 107.002C109.27 113.353 107.954 117.53 107.638 119.428L109.61 119.756ZM123.124 81.6814C127.39 70.676 130.703 62.4113 133.064 56.8806C134.245 54.1126 135.182 52.0452 135.877 50.6659C136.226 49.9728 136.502 49.4779 136.708 49.1614C136.813 49.0006 136.881 48.9143 136.915 48.8771C136.932 48.8588 136.923 48.8722 136.888 48.8974C136.861 48.9169 136.754 48.992 136.579 49.0239L136.221 47.0561C135.987 47.0986 135.814 47.2057 135.714 47.2786C135.605 47.3572 135.515 47.4452 135.444 47.5229C135.301 47.6777 135.163 47.8687 135.032 48.0706C134.766 48.4794 134.451 49.0512 134.091 49.7661C133.367 51.2028 132.411 53.3167 131.224 56.0954C128.849 61.658 125.527 69.948 121.26 80.9586L123.124 81.6814ZM136.554 49.028C139.218 48.6119 142.491 48.4 146.384 48.4V46.4C142.427 46.4 139.044 46.6148 136.246 47.052L136.554 49.028ZM146.384 48.4C148.376 48.4 151.276 48.6084 155.106 49.0339L155.326 47.0461C151.476 46.6183 148.488 46.4 146.384 46.4V48.4ZM154.802 48.9504C154.626 48.8702 154.573 48.7674 154.653 48.8684C154.703 48.9313 154.781 49.0432 154.888 49.2202C155.099 49.5712 155.377 50.0971 155.724 50.8126C156.416 52.2385 157.347 54.3414 158.518 57.1311C160.859 62.7064 164.14 70.9725 168.363 81.9355L170.229 81.2165C166.004 70.2488 162.715 61.9603 160.362 56.3569C159.187 53.5573 158.24 51.4148 157.524 49.9394C157.167 49.2042 156.858 48.6154 156.6 48.1878C156.472 47.9754 156.345 47.782 156.219 47.6236C156.123 47.5032 155.923 47.2631 155.63 47.1296L154.802 48.9504ZM168.365 81.9398C172.63 92.8593 175.901 101.479 178.179 107.803C180.472 114.167 181.726 118.117 182.006 119.76L183.978 119.424C183.661 117.568 182.333 113.433 180.061 107.125C177.774 100.777 174.495 92.138 170.227 81.2121L168.365 81.9398ZM183.992 119.592C183.992 119.801 183.87 119.921 183.852 119.935C183.852 119.935 183.877 119.916 183.945 119.887C184.012 119.858 184.106 119.825 184.234 119.792C184.769 119.654 185.659 119.568 186.96 119.568V117.568C185.616 117.568 184.521 117.653 183.734 117.856C183.345 117.956 182.947 118.106 182.628 118.353C182.279 118.623 181.992 119.042 181.992 119.592H183.992ZM186.96 119.568C189.297 119.568 190.449 120.212 190.952 121.106L192.696 120.126C191.663 118.29 189.572 117.568 186.96 117.568V119.568ZM190.967 121.13C191.252 121.607 191.515 122.407 191.699 123.615C191.881 124.806 191.976 126.32 191.976 128.168H193.976C193.976 126.261 193.879 124.639 193.677 123.313C193.477 122.004 193.164 120.905 192.681 120.102L190.967 121.13ZM191.976 128.168C191.976 130.32 191.859 131.943 191.642 133.067C191.534 133.629 191.407 134.026 191.282 134.289C191.152 134.561 191.065 134.599 191.089 134.586L192.047 136.342C192.54 136.073 192.864 135.615 193.086 135.151C193.313 134.678 193.48 134.099 193.606 133.445C193.858 132.137 193.976 130.368 193.976 128.168H191.976ZM190.89 134.729C190.898 134.722 190.821 134.787 190.554 134.883C190.306 134.972 189.96 135.064 189.502 135.155C188.587 135.336 187.315 135.492 185.667 135.619C182.378 135.872 177.693 136 171.6 136V138C177.71 138 182.454 137.872 185.821 137.613C187.501 137.484 188.863 137.32 189.89 137.117C190.403 137.016 190.854 136.9 191.23 136.765C191.587 136.637 191.961 136.462 192.246 136.199L190.89 134.729ZM171.6 136C167.213 136 163.961 135.882 161.818 135.654C160.738 135.538 159.995 135.4 159.545 135.256C159.437 135.221 159.357 135.189 159.299 135.163C159.241 135.136 159.219 135.12 159.221 135.121C159.221 135.121 159.267 135.155 159.316 135.233C159.37 135.32 159.416 135.444 159.416 135.592H157.416C157.416 136.151 157.755 136.523 158.023 136.723C158.29 136.922 158.616 137.058 158.935 137.16C159.583 137.368 160.489 137.523 161.606 137.642C163.858 137.883 167.197 138 171.6 138V136ZM158.925 134.731C158.344 134.388 157.727 133.5 157.275 131.672C156.833 129.886 156.6 127.407 156.6 124.2H154.6C154.6 127.478 154.836 130.14 155.333 132.152C155.82 134.121 156.611 135.687 157.907 136.453L158.925 134.731ZM156.6 124.2C156.6 123.28 156.643 122.619 156.714 122.188L154.742 121.86C154.643 122.453 154.6 123.243 154.6 124.2H156.6ZM156.714 122.188C156.746 122.001 156.895 121.682 157.403 121.247L156.101 119.729C155.414 120.318 154.881 121.023 154.742 121.86L156.714 122.188ZM157.403 121.247C157.757 120.944 158.344 120.72 159.312 120.72V118.72C158.061 118.72 156.942 119.008 156.101 119.729L157.403 121.247ZM159.312 120.72C160.539 120.72 161.411 120.763 161.959 120.839C162.244 120.878 162.375 120.917 162.41 120.932C162.428 120.94 162.359 120.916 162.271 120.831C162.169 120.732 162.024 120.527 162.024 120.232H164.024C164.024 119.851 163.841 119.567 163.661 119.393C163.496 119.233 163.31 119.14 163.174 119.084C162.9 118.97 162.567 118.903 162.233 118.857C161.544 118.762 160.56 118.72 159.312 118.72V120.72ZM163.024 121.232C163.337 121.232 163.64 121.127 163.888 120.92C164.119 120.728 164.254 120.489 164.336 120.283C164.494 119.89 164.536 119.416 164.536 118.952H162.536C162.536 119.134 162.527 119.275 162.513 119.38C162.506 119.432 162.498 119.471 162.492 119.499C162.488 119.512 162.485 119.523 162.483 119.53C162.482 119.533 162.481 119.536 162.481 119.538C162.48 119.539 162.48 119.539 162.48 119.54C162.48 119.54 162.48 119.541 162.48 119.541C162.48 119.541 162.48 119.54 162.48 119.54C162.48 119.539 162.48 119.539 162.481 119.538C162.482 119.536 162.483 119.533 162.485 119.53C162.488 119.522 162.495 119.511 162.504 119.497C162.523 119.469 162.556 119.427 162.608 119.384C162.728 119.283 162.882 119.232 163.024 119.232V121.232ZM164.536 118.952C164.536 117.757 164.222 115.908 163.645 113.474C163.062 111.013 162.192 107.877 161.037 104.07L159.123 104.65C160.272 108.438 161.13 111.531 161.699 113.934C162.274 116.364 162.536 118.013 162.536 118.952H164.536ZM159.983 103.365C156.53 103.702 151.916 103.872 146.128 103.872V105.872C151.945 105.872 156.632 105.701 160.177 105.355L159.983 103.365ZM146.128 103.872C139.91 103.872 135.084 103.701 131.633 103.365L131.439 105.355C134.985 105.701 139.887 105.872 146.128 105.872V103.872ZM130.578 104.073C129.423 107.922 128.553 111.09 127.97 113.571C127.394 116.026 127.08 117.886 127.08 119.08H129.08C129.08 118.14 129.342 116.481 129.918 114.029C130.487 111.603 131.345 108.478 132.494 104.647L130.578 104.073ZM127.08 119.08C127.08 119.484 127.127 119.911 127.294 120.286C127.477 120.698 127.821 121.07 128.349 121.202L128.835 119.262C128.909 119.28 128.983 119.319 129.044 119.375C129.1 119.426 129.12 119.47 129.122 119.474C129.123 119.476 129.111 119.449 129.099 119.378C129.088 119.308 129.08 119.211 129.08 119.08H127.08ZM129.147 121.064C129.219 121.016 129.45 120.915 129.96 120.836C130.446 120.762 131.094 120.72 131.92 120.72V118.72C131.039 118.72 130.28 118.764 129.656 118.86C129.057 118.952 128.477 119.107 128.037 119.4L129.147 121.064ZM131.92 120.72C133.069 120.72 133.697 120.991 134.029 121.323L135.443 119.909C134.581 119.047 133.331 118.72 131.92 118.72V120.72ZM134.077 121.369C134.668 121.885 134.86 122.283 134.898 122.549L136.878 122.267C136.745 121.338 136.17 120.542 135.395 119.863L134.077 121.369ZM134.898 122.549C134.973 123.071 135.016 123.99 135.016 125.352H137.016C137.016 123.983 136.974 122.94 136.878 122.267L134.898 122.549ZM135.016 125.352C135.016 128.125 134.784 130.286 134.348 131.871C133.907 133.473 133.299 134.344 132.663 134.748L133.737 136.436C134.978 135.646 135.778 134.213 136.276 132.401C136.779 130.573 137.016 128.211 137.016 125.352H135.016ZM132.2 135.592C132.2 135.444 132.246 135.32 132.3 135.233C132.349 135.155 132.395 135.121 132.395 135.121C132.397 135.12 132.375 135.136 132.317 135.163C132.259 135.189 132.179 135.221 132.071 135.256C131.621 135.4 130.878 135.538 129.798 135.654C127.655 135.882 124.403 136 120.016 136V138C124.419 138 127.758 137.883 130.01 137.642C131.127 137.523 132.033 137.368 132.681 137.16C133 137.058 133.326 136.922 133.593 136.723C133.861 136.523 134.2 136.151 134.2 135.592H132.2ZM120.016 136C113.923 136 109.238 135.872 105.949 135.619C104.301 135.492 103.029 135.336 102.114 135.155C101.656 135.064 101.31 134.972 101.062 134.883C100.795 134.787 100.718 134.722 100.726 134.729L99.3697 136.199C99.6549 136.462 100.029 136.637 100.386 136.765C100.762 136.9 101.213 137.016 101.726 137.117C102.753 137.32 104.115 137.484 105.795 137.613C109.162 137.872 113.906 138 120.016 138V136ZM100.527 134.586C100.551 134.599 100.464 134.561 100.334 134.289C100.209 134.026 100.082 133.629 99.9739 133.067C99.757 131.943 99.64 130.32 99.64 128.168H97.64C97.64 130.368 97.7577 132.137 98.0101 133.445C98.1362 134.099 98.3033 134.678 98.5299 135.151C98.7517 135.615 99.0759 136.073 99.5691 136.342L100.527 134.586ZM136.223 90.5089C139.441 90.2548 142.53 90.128 145.488 90.128V88.128C142.473 88.128 139.332 88.2572 136.065 88.5151L136.223 90.5089ZM145.488 90.128C148.954 90.128 152.203 90.2971 155.234 90.6339L155.454 88.6461C152.341 88.3002 149.019 88.128 145.488 88.128V90.128ZM156.291 89.3195C152.449 77.9629 149.241 69.1503 146.669 62.8919L144.819 63.6521C147.367 69.8523 150.559 78.6184 154.397 89.9605L156.291 89.3195ZM144.817 62.896C142.418 68.809 139.211 77.5757 135.199 89.1854L137.089 89.8386C141.098 78.2377 144.291 69.511 146.671 63.648L144.817 62.896Z" fill="#1E1E1E"/>
<path d="M224 54.375C223.583 54.625 223.167 55 222.75 55.5C222.333 56 222.042 56.5417 221.875 57.125C221.708 57.7083 221.667 58.25 221.75 58.75C221.917 59.25 222.333 59.6667 223 60C223 61 222.708 61.625 222.125 61.875C222.292 62.7083 222.25 63.5833 222 64.5C221.833 65.4167 222 66.1667 222.5 66.75C222.167 67 222.042 67.4583 222.125 68.125C222.208 68.7083 222.167 69.125 222 69.375C222.5 70.5417 222.5 71.7917 222 73.125C221.583 74.4583 221.458 75.9167 221.625 77.5C221.625 79.5833 221.5 81.2083 221.25 82.375C221 83.4583 220.958 84.4583 221.125 85.375C220.958 85.625 220.75 85.9167 220.5 86.25C220.333 86.5 220 86.625 219.5 86.625C219.333 86.4583 219.208 86.1667 219.125 85.75C219.125 85.3333 219.208 85.0417 219.375 84.875C218.958 84.7083 218.625 84.4167 218.375 84C218.208 83.5 218.042 83 217.875 82.5C217.792 82 217.667 81.5 217.5 81C217.417 80.5 217.25 80.0833 217 79.75C216.833 78.5 216.583 77.1667 216.25 75.75C215.917 74.25 215.5 72.9167 215 71.75C214.833 71.4167 214.708 71 214.625 70.5C214.542 69.9167 214.458 69.3333 214.375 68.75C214.375 68.0833 214.292 67.4583 214.125 66.875C214.042 66.2917 213.792 65.7917 213.375 65.375C212.958 65.4583 212.667 65.4167 212.5 65.25C212.417 65.0833 212.208 65.0833 211.875 65.25C211.792 65 211.708 64.7917 211.625 64.625C211.542 64.375 211.5 64.125 211.5 63.875C211.667 63.2917 211.792 62.8333 211.875 62.5C212.042 62.1667 212.208 61.8333 212.375 61.5C210.875 61.1667 210.042 60.7083 209.875 60.125C209.792 59.5417 209.708 58.7917 209.625 57.875C209.042 57.4583 208.583 57 208.25 56.5C208 56 207.667 55.5417 207.25 55.125C206.833 55.2917 206.417 55.3333 206 55.25C205.667 55.1667 205.417 55.3333 205.25 55.75C204.583 55.1667 204.208 54.8333 204.125 54.75C204.125 54.6667 204.042 54.4167 203.875 54C204.042 53.8333 204.292 53.75 204.625 53.75C204.958 53.75 205.208 53.7083 205.375 53.625C205.042 52.7083 204.417 52.0833 203.5 51.75C202.583 51.4167 201.875 50.875 201.375 50.125C201.042 49.7083 200.708 49.3333 200.375 49C200.042 48.6667 199.708 48.375 199.375 48.125C199.042 47.7917 198.667 47.5417 198.25 47.375C197.833 47.2083 197.333 47.2083 196.75 47.375C196.583 47.125 196.375 46.9167 196.125 46.75C195.875 46.5 195.667 46.2917 195.5 46.125C194.167 46.375 192.917 46.4583 191.75 46.375C190.583 46.2917 189.583 46.3333 188.75 46.5C188.75 47.1667 188.75 47.75 188.75 48.25C188.75 48.75 188.583 49.2083 188.25 49.625C188.5 50.125 188.667 50.5 188.75 50.75C188.917 51 188.792 51.1667 188.375 51.25C188.625 51.4167 188.792 51.75 188.875 52.25C188.958 52.6667 189.083 53 189.25 53.25C188.833 53.6667 188.75 54.2083 189 54.875C189.333 55.4583 189.5 56.0417 189.5 56.625C190.083 57.4583 190.208 58.0417 189.875 58.375C189.542 58.7083 189.458 59.2917 189.625 60.125C189.792 61.9583 189.833 63.375 189.75 64.375C189.667 65.2917 189.708 66.2917 189.875 67.375C189.792 68.125 189.75 68.8333 189.75 69.5C189.833 70.0833 189.708 70.5 189.375 70.75C189.708 71.5833 189.75 72.4167 189.5 73.25C189.25 74 189.333 74.625 189.75 75.125C189.667 76.5417 189.667 77.875 189.75 79.125C189.833 80.2917 189.792 81.375 189.625 82.375C190.042 82.625 190.292 83.0417 190.375 83.625C190.458 84.2083 190.667 84.6667 191 85C190.25 85.3333 189.833 85.9583 189.75 86.875C189.75 87.7917 189.583 88.4583 189.25 88.875C189.667 89.2917 189.792 89.8333 189.625 90.5C189.458 91.1667 189.292 91.7083 189.125 92.125C189.458 92.4583 189.542 92.8333 189.375 93.25C189.208 93.6667 189.125 94 189.125 94.25C189.208 94.5833 189.333 94.8333 189.5 95C189.667 95.1667 189.792 95.3333 189.875 95.5C189.792 95.8333 189.667 96.0833 189.5 96.25C189.333 96.4167 189.167 96.625 189 96.875C188.917 97.625 189.042 98.1667 189.375 98.5C189.708 98.75 189.917 99.2083 190 99.875C189.583 101.042 189.125 101.792 188.625 102.125C188.458 102.875 188.417 103.417 188.5 103.75C188.667 104 188.75 104.5 188.75 105.25C189.167 106 189.208 106.542 188.875 106.875C188.625 107.125 188.583 107.458 188.75 107.875C189.833 108.125 190.25 108.417 190 108.75C189.833 109.083 189.583 109.458 189.25 109.875C188.917 110.208 188.583 110.583 188.25 111C188 111.333 187.875 111.708 187.875 112.125C187.875 112.625 188.042 113 188.375 113.25C188.792 113.417 188.792 113.792 188.375 114.375C189.208 113.958 189.667 113.875 189.75 114.125C189.833 114.292 190 114.417 190.25 114.5C189.667 115.167 189.125 115.958 188.625 116.875C188.208 117.792 188.333 118.625 189 119.375C188.75 119.958 188.708 120.542 188.875 121.125C189.042 121.708 189.25 122.167 189.5 122.5C189.167 123.667 189.042 124.375 189.125 124.625C189.292 124.875 189.333 125.208 189.25 125.625C188.917 126.125 188.875 126.542 189.125 126.875C189.375 127.125 189.25 127.333 188.75 127.5C189 128.167 189.083 129 189 130C188.917 131 189.083 131.833 189.5 132.5C190.167 133.167 190.958 133.833 191.875 134.5C192.792 135.083 194 135.125 195.5 134.625C197.333 135.542 199.167 136.042 201 136.125C202.833 136.125 204.708 136.125 206.625 136.125C206.875 136.292 207.083 136.5 207.25 136.75C207.5 137 207.625 137.375 207.625 137.875C207.208 137.958 206.792 138.208 206.375 138.625C206.125 138.542 205.917 138.708 205.75 139.125C205.583 139.542 205.417 139.917 205.25 140.25C204.167 140.333 203.208 140.25 202.375 140C201.625 139.75 200.833 139.833 200 140.25C199.5 140 198.833 139.75 198 139.5C197.167 139.25 196.5 139.333 196 139.75C194.583 139.417 193.125 139.333 191.625 139.5C190.125 139.583 188.542 139.708 186.875 139.875C185.708 139.625 184.667 139.5 183.75 139.5C182.833 139.5 181.875 139.542 180.875 139.625C179.458 139.375 178.042 139.292 176.625 139.375C175.292 139.375 173.958 139.542 172.625 139.875C171.542 139.625 170.458 139.5 169.375 139.5C168.375 139.417 167.208 139.333 165.875 139.25C164.375 139.083 163.125 139 162.125 139C161.125 139 160.125 138.958 159.125 138.875C158.125 138.792 157.125 138.75 156.125 138.75C155.125 138.75 154.167 138.875 153.25 139.125C152.333 138.875 151.375 138.833 150.375 139C149.375 139.167 148.25 139.167 147 139C147.167 137.667 147.542 136.917 148.125 136.75C148.708 136.5 149.333 136.375 150 136.375C150.667 136.375 151.333 136.417 152 136.5C152.667 136.5 153.333 136.5 154 136.5C154.917 136.5 155.792 136.375 156.625 136.125C157.542 135.875 158.375 135.958 159.125 136.375C160.625 136.042 161.708 135.833 162.375 135.75C163.125 135.667 163.75 135.458 164.25 135.125C165.167 134.708 166.042 133.875 166.875 132.625C167.792 131.375 168.625 130.458 169.375 129.875C169.542 129.458 169.458 129.208 169.125 129.125C168.875 129.042 168.708 128.875 168.625 128.625C168.708 128.208 168.792 127.833 168.875 127.5C169.042 127.167 168.958 126.792 168.625 126.375C168.708 125.458 168.917 124.833 169.25 124.5C169.583 124.083 169.875 123.667 170.125 123.25C170.125 122.167 170.167 121.208 170.25 120.375C170.417 119.458 170.167 118.708 169.5 118.125C170 116.958 170.25 116.125 170.25 115.625C170.333 115.125 170.458 114.583 170.625 114C169.625 112.917 169.333 112.083 169.75 111.5C170.167 110.833 170.375 110.083 170.375 109.25C170.375 108.333 170.333 107.458 170.25 106.625C170.25 105.708 170.167 104.833 170 104C170.333 103.417 170.25 102.958 169.75 102.625C169 102.708 168.417 102.75 168 102.75C168.167 102.25 168.458 101.917 168.875 101.75C169.375 101.5 169.75 101.167 170 100.75C169.917 100.167 169.917 99.625 170 99.125C170.083 98.5417 170.125 97.9167 170.125 97.25C169.792 95.6667 169.833 94.375 170.25 93.375C170.75 92.2917 170.708 91.1667 170.125 90C169.208 90 168.708 89.875 168.625 89.625C168.542 89.375 168.542 89.0417 168.625 88.625C168.958 87.7917 169.25 87.2917 169.5 87.125C169.75 86.9583 169.958 86.7083 170.125 86.375C170.042 85.7083 169.958 85.0833 169.875 84.5C169.792 83.9167 169.417 83.5833 168.75 83.5C168.333 82.75 168.25 82.1667 168.5 81.75C168.833 81.25 169.25 80.8333 169.75 80.5C169.833 79.5833 169.667 78.8333 169.25 78.25C168.833 77.6667 168.625 77 168.625 76.25C169.125 75.9167 169.333 75.3333 169.25 74.5C169.25 73.6667 169.083 73 168.75 72.5C169.083 72.0833 169.125 71.5833 168.875 71C168.625 70.4167 168.625 69.9583 168.875 69.625C168.042 69.375 167.583 69.1667 167.5 69C167.417 68.75 167.375 68.5 167.375 68.25C167.458 67.5 167.708 66.9167 168.125 66.5C168.625 66.0833 168.833 65.4583 168.75 64.625C167.833 65.0417 167.333 65.1667 167.25 65C167.25 64.75 167.125 64.5833 166.875 64.5C167.458 63.8333 167.583 63.5417 167.25 63.625C166.917 63.625 166.792 63.4583 166.875 63.125C167.375 63.0417 167.667 62.9167 167.75 62.75C167.917 62.5 167.917 62.2083 167.75 61.875C168.667 60.625 169 59.7917 168.75 59.375C168.5 58.875 168.25 58.4167 168 58C168.417 57.3333 168.667 56.5417 168.75 55.625C168.917 54.7083 168.667 54.0417 168 53.625C168.25 52.375 168.417 51.2917 168.5 50.375C168.667 49.375 168.667 48.375 168.5 47.375C166.333 47.2083 164.25 47.2083 162.25 47.375C160.25 47.4583 158.375 47.8333 156.625 48.5C156.625 49.0833 156.458 49.5 156.125 49.75C155.792 50 155.583 50.4167 155.5 51C155.083 50.8333 154.75 50.875 154.5 51.125C154.333 51.2917 154.167 51.2917 154 51.125C153.667 51.875 153.083 52.375 152.25 52.625C151.417 52.875 151 53.4167 151 54.25C150.583 54.25 150.25 54.3333 150 54.5C149.833 54.6667 149.667 54.875 149.5 55.125C149.333 55.375 149.167 55.625 149 55.875C148.917 56.0417 148.708 56.1667 148.375 56.25C148.375 57.1667 148.083 58 147.5 58.75C146.917 59.4167 146.542 60.25 146.375 61.25C146.792 61.6667 146.875 61.9583 146.625 62.125C146.375 62.2917 146.167 62.5 146 62.75C145.833 63.5 145.667 63.9167 145.5 64C145.417 64 145.208 64 144.875 64C144.292 65.1667 143.833 66.5 143.5 68C143.167 69.5 142.625 70.8333 141.875 72C141.292 73.25 141.042 74.375 141.125 75.375C141.208 76.375 141.042 77.3333 140.625 78.25C139.958 79.25 139.625 80.0417 139.625 80.625C139.625 81.2083 139.542 81.75 139.375 82.25C138.958 83.25 138.75 83.9583 138.75 84.375C138.833 84.7917 138.583 85.0417 138 85.125C137.75 85.0417 137.583 84.9167 137.5 84.75C137.417 84.5 137.25 84.2917 137 84.125C137.75 81.7083 138.375 79.1667 138.875 76.5C139.458 73.8333 140.208 71.4167 141.125 69.25C141.292 69 141.458 68.7917 141.625 68.625C141.792 68.4583 141.875 68.1667 141.875 67.75C141.042 67.3333 140.708 67.0833 140.875 67C141.042 66.8333 141.125 66.625 141.125 66.375C141.708 66.2917 142 66.0833 142 65.75C142 65.3333 142.25 65.0417 142.75 64.875C142.25 64.0417 142.083 63.625 142.25 63.625C142.417 63.625 142.583 63.5417 142.75 63.375C142.333 63.2083 142 63.2917 141.75 63.625C141.583 63.875 141.292 64 140.875 64C139.958 64.6667 139.625 65.0417 139.875 65.125C140.208 65.2083 140.333 65.3333 140.25 65.5C139.833 65.75 139.5 65.7917 139.25 65.625C139 65.4583 138.708 65.375 138.375 65.375C138.458 66.125 138.292 66.625 137.875 66.875C137.542 67.125 137.083 67.4167 136.5 67.75C136.083 68.9167 135.958 70 136.125 71C136.375 72 136.5 73.0417 136.5 74.125C136.5 74.875 136.333 75.7917 136 76.875C135.75 77.875 135.958 78.75 136.625 79.5C136.292 80.4167 136.208 81.2917 136.375 82.125C136.625 82.9583 136.708 83.9167 136.625 85L135.375 85.625C134.958 85.0417 134.792 84.4167 134.875 83.75C135.042 83.0833 134.875 82.5417 134.375 82.125C134.625 80.2917 134.667 78.5417 134.5 76.875C134.417 75.125 134.333 73.375 134.25 71.625C134.25 71.2917 134.292 71 134.375 70.75C134.458 70.4167 134.5 70.125 134.5 69.875C134.667 68.9583 134.667 67.9167 134.5 66.75C134.417 65.5833 134.5 64.5 134.75 63.5C134.917 63.1667 135 62.75 135 62.25C135 61.75 134.917 61.25 134.75 60.75C134 60.4167 133.5 60.3333 133.25 60.5C133.083 60.6667 132.917 60.75 132.75 60.75C133.083 60.0833 133.292 59.7083 133.375 59.625C133.542 59.5417 133.75 59.5 134 59.5C133.667 59.0833 133.667 58.75 134 58.5C134.333 58.1667 134.583 57.75 134.75 57.25C134.417 56.5 134.333 56.125 134.5 56.125C134.667 56.0417 134.792 55.9167 134.875 55.75C135.208 54.5833 135.25 52.9583 135 50.875C134.75 48.7917 134.417 46.9167 134 45.25C134.417 45.1667 134.917 45.125 135.5 45.125C136.167 45.0417 136.542 45.1667 136.625 45.5C136.792 45.25 137.25 45.0417 138 44.875C138.583 45.0417 139.208 45.125 139.875 45.125C140.542 45.125 141.167 45.125 141.75 45.125C142.333 45.0417 142.875 44.9167 143.375 44.75C143.875 44.5833 144.292 44.2917 144.625 43.875C145.042 44.2917 145.583 44.5833 146.25 44.75C146.917 44.9167 147.625 45 148.375 45C149.208 44.9167 150 44.7917 150.75 44.625C151.5 44.4583 152.125 44.2917 152.625 44.125C154.958 44.375 156.833 44.5 158.25 44.5C159.667 44.5 161.125 44.5833 162.625 44.75C163.292 44.4167 163.917 44.2917 164.5 44.375C165.167 44.375 165.792 44.4583 166.375 44.625C166.958 44.7917 167.542 44.9167 168.125 45C168.708 45.0833 169.292 44.9583 169.875 44.625C170.625 44.7083 171.25 44.7917 171.75 44.875C172.333 44.9583 172.792 44.9167 173.125 44.75C173.958 44.75 174.708 44.75 175.375 44.75C176.042 44.75 176.708 44.7917 177.375 44.875C178.125 44.9583 178.792 44.9583 179.375 44.875C180.042 44.7083 180.542 44.375 180.875 43.875C181.875 44.4583 182.792 44.6667 183.625 44.5C184.458 44.3333 185.292 44.1667 186.125 44C186.625 43.9167 187.125 43.9583 187.625 44.125C188.125 44.2083 188.583 44.2083 189 44.125C189.667 44.0417 190.25 43.8333 190.75 43.5C191.25 43.1667 191.833 43.3333 192.5 44C193.417 43.9167 194.333 43.9167 195.25 44C196.167 44.0833 197 44.1667 197.75 44.25C198.583 44.25 199.375 44.2083 200.125 44.125C200.875 43.9583 201.5 43.6667 202 43.25C202.667 43.4167 203.042 43.5417 203.125 43.625C203.292 43.625 203.417 43.7917 203.5 44.125C205.167 43.5417 206.417 43.1667 207.25 43C208.167 42.8333 209.083 42.5417 210 42.125C210.417 42.2917 210.833 42.5 211.25 42.75C211.75 42.9167 212.083 43.2083 212.25 43.625C213.167 43.4583 214.208 43.5 215.375 43.75C216.542 43.9167 217.583 44.0417 218.5 44.125C218.833 43.5417 219.25 43.25 219.75 43.25C220.25 43.25 220.708 43.4583 221.125 43.875C221.542 44.2083 221.792 44.6667 221.875 45.25C222.042 45.75 221.875 46.2917 221.375 46.875C221.708 47.2917 221.75 47.6667 221.5 48C221.25 48.3333 221.292 48.7083 221.625 49.125C222.042 48.875 222.458 48.75 222.875 48.75C223.375 48.75 223.667 48.9167 223.75 49.25C223.833 49.6667 223.708 49.8333 223.375 49.75C223.125 49.6667 222.875 49.7917 222.625 50.125C222.375 50.375 222.208 50.75 222.125 51.25C222.125 51.6667 221.917 52 221.5 52.25C221.5 52.6667 221.708 52.8333 222.125 52.75C222.625 52.6667 222.917 52.8333 223 53.25C223.583 53.3333 223.833 53.4583 223.75 53.625C223.75 53.7083 223.833 53.9583 224 54.375ZM140.375 69.375C140.125 69.625 139.875 69.7917 139.625 69.875C139.375 69.9583 139.292 70.1667 139.375 70.5C139.125 70.1667 139.083 69.875 139.25 69.625C139.5 69.375 139.875 69.2917 140.375 69.375ZM219.75 46C219.333 45.8333 219 45.75 218.75 45.75C218.583 45.75 218.333 45.625 218 45.375C217.833 45.7083 217.417 45.75 216.75 45.5C216.083 45.25 215.625 45.3333 215.375 45.75C214.958 46.8333 214.417 47.625 213.75 48.125C213.083 48.625 212.292 48.9583 211.375 49.125C210.708 49.375 210.167 49.625 209.75 49.875C209.417 50.2917 209.125 50.6667 208.875 51C208.708 51.25 208.417 51.5 208 51.75C208.417 52.1667 208.917 52.3333 209.5 52.25C210.167 52.0833 210.667 52.0833 211 52.25C211.417 51.4167 211.792 50.875 212.125 50.625C212.542 50.2917 213.083 50.1667 213.75 50.25C213.917 49.25 214.25 48.6667 214.75 48.5C215.333 48.3333 215.833 48.375 216.25 48.625C216.333 48.2083 216.667 48 217.25 48C217.917 48 218.125 47.7917 217.875 47.375C218.542 47.125 219.042 46.9583 219.375 46.875C219.708 46.7917 219.833 46.5 219.75 46ZM216.125 49.75C215.875 49.9167 215.583 49.9583 215.25 49.875C215 49.7083 214.708 49.7083 214.375 49.875C215.042 50.375 215.5 50.5833 215.75 50.5C216.083 50.3333 216.208 50.0833 216.125 49.75ZM219.125 56.625C218.958 56.2083 218.792 56 218.625 56C218.458 55.9167 218.25 55.9167 218 56C217.833 56 217.583 56.0417 217.25 56.125C217 56.2083 216.708 56.2083 216.375 56.125C216.625 56.5417 217.042 56.7083 217.625 56.625C218.208 56.5417 218.708 56.5417 219.125 56.625ZM212.5 46.25C211.75 45.5833 211.083 45.375 210.5 45.625C210 45.7917 209.5 46.0417 209 46.375C208.583 46.625 208.125 46.9167 207.625 47.25C207.208 47.5833 206.75 47.75 206.25 47.75C205.917 48.3333 205.417 48.75 204.75 49C205.167 49.5833 205.5 49.8333 205.75 49.75C206 49.5833 206.292 49.5833 206.625 49.75C207.458 48.75 208.125 48.2917 208.625 48.375C209.292 47.7917 209.875 47.2917 210.375 46.875C210.875 46.4583 211.583 46.25 212.5 46.25ZM214 51.125C213.75 50.875 213.5 50.875 213.25 51.125C213 51.375 212.75 51.4167 212.5 51.25C211.75 51.9167 211.333 52.3333 211.25 52.5C211.25 52.6667 211.167 52.8333 211 53C210.75 52.8333 210.5 52.7917 210.25 52.875C210.083 52.875 209.875 52.9167 209.625 53C209.625 53.4167 209.542 53.6667 209.375 53.75C209.208 53.8333 209.167 54.0833 209.25 54.5C210.5 54.1667 211.167 53.6667 211.25 53C211.667 53 211.958 52.7917 212.125 52.375C212.375 51.9583 212.708 52 213.125 52.5C213.042 52.0833 213.125 51.8333 213.375 51.75C213.708 51.6667 213.917 51.4583 214 51.125ZM220.375 59.5C220.458 58.9167 220.292 58.5417 219.875 58.375C219.542 58.2083 219.167 58.0417 218.75 57.875C218.667 58.7083 218.5 59.125 218.25 59.125C218 59.0417 217.792 59.0833 217.625 59.25C217.042 59.6667 216.458 59.9583 215.875 60.125C215.292 60.2083 214.917 59.9583 214.75 59.375C215 59.375 215.25 59.375 215.5 59.375C215.75 59.2917 215.958 59.1667 216.125 59C217.042 58.6667 217.5 58.5833 217.5 58.75C217.5 58.9167 217.625 58.9583 217.875 58.875C218.042 58.375 217.917 58.2083 217.5 58.375C217.083 58.4583 216.833 58.3333 216.75 58C216.333 57.9167 215.958 57.875 215.625 57.875C215.375 57.7917 215.083 57.8333 214.75 58C214.917 58.3333 214.833 58.5833 214.5 58.75C214.167 58.9167 214 59.2083 214 59.625C214.5 60.375 214.917 60.7083 215.25 60.625C215.667 60.4583 216.042 60.4583 216.375 60.625C216.542 61.625 216.667 62.125 216.75 62.125C216.917 62.0417 217.042 61.9167 217.125 61.75C217.208 61.5833 217.292 61.375 217.375 61.125C217.542 60.875 217.708 60.75 217.875 60.75C218.208 60.75 218.5 60.7917 218.75 60.875C219 60.875 219.208 60.875 219.375 60.875C219.625 60.2083 219.792 59.8333 219.875 59.75C220.042 59.6667 220.208 59.5833 220.375 59.5ZM206.625 45.75C205.542 45.8333 204.542 45.9167 203.625 46C202.708 46 202.125 46.5 201.875 47.5C202.292 47.5833 202.542 47.75 202.625 48C202.792 48.25 203.083 48.4583 203.5 48.625C203.917 47.7917 204.458 47.3333 205.125 47.25C205.875 47.0833 206.375 46.5833 206.625 45.75ZM219 61.875C218 62.2917 217.292 62.7083 216.875 63.125C216.458 63.5417 215.958 63.9583 215.375 64.375C215.542 65.2917 215.833 65.8333 216.25 66C217.583 65.1667 218.5 63.7917 219 61.875ZM220.375 63.875C220.208 64.625 219.583 65.2083 218.5 65.625C218.5 66.4583 218.292 66.9583 217.875 67.125C217.542 67.2917 217.167 67.5 216.75 67.75C217.083 68.0833 217.208 68.4167 217.125 68.75C217.042 69 217 69.25 217 69.5C217.5 69.4167 217.875 69.3333 218.125 69.25C218.458 69.0833 218.833 69.0833 219.25 69.25C220.333 68.1667 220.833 67.125 220.75 66.125C220.75 65.125 220.625 64.375 220.375 63.875ZM219.875 70.75C218.792 71 218 71.5 217.5 72.25C217 73 217.042 73.9583 217.625 75.125C218.208 75.5417 218.75 75.4167 219.25 74.75C219 74.1667 219.125 73.5417 219.625 72.875C220.208 72.125 220.292 71.4167 219.875 70.75ZM220.125 76.875C219.458 77.0417 219.208 77.2917 219.375 77.625C219.542 77.875 219.542 78.0833 219.375 78.25C218.792 78.4167 218.583 78.8333 218.75 79.5C219 80.1667 219.333 80.6667 219.75 81C220 80.5 220.167 79.875 220.25 79.125C220.333 78.2917 220.292 77.5417 220.125 76.875ZM181.875 48C181.208 47.8333 180.583 47.875 180 48.125C179.417 48.2917 178.917 48.4167 178.5 48.5C178.667 48 178.958 47.75 179.375 47.75C179.792 47.75 180.208 47.6667 180.625 47.5L178.75 46.375C177.833 47.5417 176.667 48.4583 175.25 49.125C173.833 49.7083 172.667 50.5417 171.75 51.625C171.833 52.125 171.708 52.5417 171.375 52.875C171.042 53.125 170.75 53.4583 170.5 53.875C170.333 54.2083 170.292 54.5417 170.375 54.875C170.542 55.2083 170.875 55.4583 171.375 55.625C172.375 54.7083 173.083 54 173.5 53.5C173.917 53 174.458 52.5833 175.125 52.25C175.292 52.8333 175.417 52.875 175.5 52.375C175.583 51.7917 175.958 51.5833 176.625 51.75C177.042 51.25 177.333 50.9583 177.5 50.875C177.75 50.7083 177.958 50.5417 178.125 50.375C178.292 50.2083 178.458 50.0833 178.625 50C178.792 49.9167 179 49.9167 179.25 50C179.417 49.5 179.75 49.2083 180.25 49.125C180.833 49.0417 181.167 48.6667 181.25 48H181.875ZM176.375 46.375C175.292 46.625 174.292 46.6667 173.375 46.5C172.542 46.3333 171.625 46.4167 170.625 46.75C170.208 47.25 170.042 47.8333 170.125 48.5C170.292 49.0833 170.333 49.7917 170.25 50.625C171.5 50.375 172.625 49.875 173.625 49.125C174.708 48.2917 175.625 47.375 176.375 46.375ZM187.125 46.5C186.708 46.25 186.333 46.1667 186 46.25C185.667 46.25 185.25 46.2083 184.75 46.125C184.417 46.7083 184.083 47.2917 183.75 47.875C183.5 48.4583 182.917 48.7917 182 48.875C181.75 49.2917 181.458 49.7083 181.125 50.125C180.792 50.5417 180.167 50.6667 179.25 50.5C179 51.1667 178.667 51.5 178.25 51.5C177.833 51.4167 177.417 51.4583 177 51.625C176.167 52.4583 175.333 53.2917 174.5 54.125C173.75 54.9583 172.75 55.625 171.5 56.125C171.417 56.5417 171.5 56.7917 171.75 56.875C172 56.875 172.125 57.0833 172.125 57.5C171.875 57.8333 171.583 58.125 171.25 58.375C171 58.5417 170.792 58.8333 170.625 59.25C171.375 58.9167 172.083 58.4167 172.75 57.75C173.333 58.4167 173.458 58.875 173.125 59.125C172.792 59.2917 172.542 59.625 172.375 60.125C171.792 59.9583 171.417 60 171.25 60.25C171.083 60.4167 170.833 60.5417 170.5 60.625C171 61.2083 171.208 61.5417 171.125 61.625C171.042 61.625 171.083 61.7083 171.25 61.875C171.5 61.875 171.75 61.8333 172 61.75C172.25 61.6667 172.5 61.7083 172.75 61.875C172.5 62.0417 172.208 62.25 171.875 62.5C171.542 62.75 171.25 63.0417 171 63.375C170.833 63.7083 170.75 64.0417 170.75 64.375C170.75 64.7083 170.958 65 171.375 65.25C171.542 65.0833 171.667 64.9167 171.75 64.75C171.833 64.5 172.042 64.2917 172.375 64.125C173.042 63.7083 173.417 63.4583 173.5 63.375C173.583 63.2917 173.708 63.25 173.875 63.25C174.542 64.0833 174.917 64.4167 175 64.25C175.5 63.75 176 63.5 176.5 63.5C176.583 63.0833 176.458 62.875 176.125 62.875C175.792 62.7917 175.542 62.6667 175.375 62.5C175.208 63.3333 174.833 63.7917 174.25 63.875C173.833 63.4583 173.708 63.125 173.875 62.875C174.125 62.5417 174.542 62.4167 175.125 62.5C174.792 62.3333 174.667 62.0417 174.75 61.625C174.833 61.125 175.167 60.9167 175.75 61C176 61.4167 176.167 61.5417 176.25 61.375C176.417 61.2083 176.708 61.2083 177.125 61.375C177.792 61.0417 178.208 60.6667 178.375 60.25C179.292 59.5 179.708 58.75 179.625 58C179.875 58 180.083 57.9167 180.25 57.75C180.417 57.5833 180.667 57.5833 181 57.75C180 57.75 179.458 57.6667 179.375 57.5C179.375 57.3333 179.333 57.1667 179.25 57C179.75 56.8333 180.125 56.5833 180.375 56.25C180.708 55.9167 181.208 55.7083 181.875 55.625C182.375 55.2917 182.625 55.0833 182.625 55C182.708 54.8333 182.833 54.6667 183 54.5C183.75 53.75 184.458 53.2917 185.125 53.125C185.792 52.875 186.417 52.5833 187 52.25C187.167 51.25 187.167 50.2917 187 49.375C186.917 48.375 186.958 47.4167 187.125 46.5ZM181.375 59.75C180.875 59.5833 180.5 59.5417 180.25 59.625C180.083 59.7083 179.917 59.8333 179.75 60C179.917 60.4167 180.208 60.625 180.625 60.625C181.042 60.5417 181.292 60.25 181.375 59.75ZM188.375 72.375C188.125 71.875 188.042 71.4583 188.125 71.125C188.292 70.7917 188.375 70.2917 188.375 69.625C187.375 69.9583 186.875 70.0417 186.875 69.875C186.958 69.7083 186.917 69.625 186.75 69.625C185.917 69.125 185.417 68.9583 185.25 69.125C185.083 69.2083 184.917 69.1667 184.75 69C185.5 68.8333 185.958 68.8333 186.125 69C186.292 69.1667 186.5 69.2917 186.75 69.375C186.75 68.875 186.833 68.5417 187 68.375C187.167 68.125 187.167 67.7917 187 67.375C187.333 67.125 187.583 67 187.75 67C188 66.9167 188.208 66.8333 188.375 66.75C188.208 66.3333 188.208 65.7917 188.375 65.125C188.542 64.375 188.292 64 187.625 64C186.708 64.8333 186.208 65.125 186.125 64.875C186.042 64.625 185.875 64.5833 185.625 64.75C185.708 65.4167 185.583 65.875 185.25 66.125C184.917 66.375 184.583 66.4583 184.25 66.375C183.833 65.7083 183.75 65.375 184 65.375C184.25 65.375 184.417 65.2083 184.5 64.875C185.333 64.5417 185.917 64.375 186.25 64.375C186.583 64.2917 186.875 64.125 187.125 63.875C186.542 63.7917 186.042 63.7917 185.625 63.875C185.208 63.875 184.708 63.9583 184.125 64.125C183.958 63.375 183.917 62.9167 184 62.75C184.083 62.5833 184.292 62.5833 184.625 62.75C184.958 63.5 185.208 63.7917 185.375 63.625C185.625 63.375 185.875 63.3333 186.125 63.5C186.458 62.75 186.542 62.3333 186.375 62.25C186.208 62.1667 186.125 62 186.125 61.75C186.542 61.5833 186.875 61.5 187.125 61.5C187.458 61.5 187.875 61.4583 188.375 61.375C188.458 60.7083 188.208 60.1667 187.625 59.75C187.125 60.4167 186.625 60.6667 186.125 60.5C185.958 60.8333 185.875 61.0833 185.875 61.25C185.875 61.3333 185.75 61.5 185.5 61.75C185.333 61.1667 185.5 60.6667 186 60.25C186.5 59.8333 186.792 59.375 186.875 58.875C186.958 58.5417 186.833 58.3333 186.5 58.25C186.167 58.1667 185.792 58.25 185.375 58.5C185.292 58.0833 185.375 57.875 185.625 57.875C185.875 57.7917 186.125 57.75 186.375 57.75C186.625 57.75 186.875 57.75 187.125 57.75C187.375 57.75 187.542 57.6667 187.625 57.5C187.125 57.3333 187 57 187.25 56.5C187.5 56 187.458 55.5833 187.125 55.25C186.458 55.4167 185.958 55.75 185.625 56.25C185.292 56.6667 184.708 56.8333 183.875 56.75C183.875 57.1667 183.75 57.5 183.5 57.75C183.25 57.9167 182.958 58.0833 182.625 58.25C182.375 58.3333 182.125 58.4583 181.875 58.625C181.625 58.7083 181.458 58.9167 181.375 59.25C182.125 59.3333 182.583 59.4583 182.75 59.625C183 59.7917 183.042 59.9583 182.875 60.125C182.042 60.5417 181.583 60.7917 181.5 60.875C181.5 60.875 181.417 60.7917 181.25 60.625C180.583 60.875 180.208 61.0833 180.125 61.25C180.042 61.3333 179.917 61.4167 179.75 61.5C179 61.1667 178.583 61.125 178.5 61.375C178.417 61.625 178.25 61.7917 178 61.875C177.333 61.875 176.917 61.875 176.75 61.875C176.583 61.875 176.458 61.9167 176.375 62C176.458 62.5 176.667 62.75 177 62.75C177.417 62.75 177.708 62.5833 177.875 62.25C177.958 62.75 177.917 63.0833 177.75 63.25C177.667 63.3333 177.5 63.4167 177.25 63.5C177.083 63.5833 176.875 63.6667 176.625 63.75C176.458 63.75 176.333 63.875 176.25 64.125C175.667 64.5417 175.25 64.875 175 65.125C174.833 65.375 174.458 65.4583 173.875 65.375C172.792 66.2083 171.958 66.875 171.375 67.375C170.875 67.7917 170.625 68.5417 170.625 69.625C171.292 69.4583 172 69.2083 172.75 68.875C173.583 68.5417 174.208 68.5833 174.625 69C175.042 68.25 175.417 67.7917 175.75 67.625L177.5 66.875C177.667 66.4583 177.75 66.2083 177.75 66.125C177.833 65.9583 177.875 65.75 177.875 65.5C178.958 65.25 179.667 65 180 64.75C180.333 64.4167 180.5 64.1667 180.5 64C181 63.75 181.333 63.5 181.5 63.25C181.75 62.9167 182.167 62.6667 182.75 62.5C183 62.5 183.167 62.6667 183.25 63C183.333 63.25 183.417 63.5833 183.5 64C183.25 64.0833 182.958 64.125 182.625 64.125C182.292 64.125 182.083 64.2917 182 64.625C181.583 65.5417 181.208 66.0417 180.875 66.125C180.542 66.2083 180.333 66.4167 180.25 66.75C180.083 66.3333 179.75 66.25 179.25 66.5C178.75 66.6667 178.417 66.875 178.25 67.125C177.667 67.7917 177.292 68.1667 177.125 68.25C176.958 68.25 176.833 68.3333 176.75 68.5C177 68.5833 177.208 68.5 177.375 68.25C177.625 67.9167 177.875 67.9167 178.125 68.25C176.875 69.0833 175.667 69.9167 174.5 70.75C173.333 71.5 172.083 72.25 170.75 73C170.75 73.75 170.833 74.2917 171 74.625C171.167 74.875 171.375 75.1667 171.625 75.5C171.792 75 172 74.75 172.25 74.75C172.5 74.75 172.708 74.7917 172.875 74.875C173.042 74.5417 173.25 74.1667 173.5 73.75C173.833 73.3333 174.167 72.9167 174.5 72.5C175.417 72 175.875 71.8333 175.875 72C175.958 72.0833 176.083 72.125 176.25 72.125C176.667 71.625 176.958 71.375 177.125 71.375C177.292 71.2917 177.5 71.375 177.75 71.625C177.333 70.9583 177.042 70.5417 176.875 70.375C177.208 70.2917 177.458 70.1667 177.625 70C177.792 69.8333 177.958 69.7083 178.125 69.625C178.375 69.2917 178.5 69 178.5 68.75C178.583 68.5 178.792 68.3333 179.125 68.25C179.542 68.5833 180.083 68.875 180.75 69.125C180.75 68.4583 180.875 68.125 181.125 68.125C181.458 68.0417 181.708 68.0833 181.875 68.25C181.625 67.8333 181.583 67.5417 181.75 67.375C182 67.125 182.083 66.7917 182 66.375C182.25 67.0417 182.417 67.625 182.5 68.125C182.583 68.5417 182.792 68.5833 183.125 68.25C183.125 69.6667 182.75 70.5833 182 71C181.25 71.3333 180.583 71.5833 180 71.75C180.083 71.9167 179.958 72.125 179.625 72.375C179.292 72.5417 178.917 72.5417 178.5 72.375C178.333 72.875 178.125 73.2917 177.875 73.625C177.625 73.9583 177.208 74.125 176.625 74.125C176.458 74.5417 176.167 74.8333 175.75 75C175.417 75.0833 175.125 75.2917 174.875 75.625C174.292 75.875 173.75 76.1667 173.25 76.5C172.833 76.8333 172.417 77.2083 172 77.625C171.667 77.9583 171.417 78.3333 171.25 78.75C171.167 79.1667 171.375 79.625 171.875 80.125C171.958 79.5417 172.042 79.1667 172.125 79C172.292 78.8333 172.5 78.6667 172.75 78.5C173.583 79.25 174.167 79.375 174.5 78.875C174.667 78.4583 174.833 78.1667 175 78C175.167 77.8333 175.458 77.9167 175.875 78.25C177.125 78.25 177.958 78.0833 178.375 77.75C178.792 77.3333 178.833 76.9583 178.5 76.625C178.25 76.0417 178.083 75.6667 178 75.5C177.917 75.3333 177.917 75.1667 178 75C178.667 74.6667 179.042 74.5417 179.125 74.625C179.292 74.625 179.625 74.6667 180.125 74.75C180.792 74.6667 181.417 74.7083 182 74.875C182.583 74.9583 183.083 74.8333 183.5 74.5C183.667 73.5 184.125 73 184.875 73C185.625 72.9167 186.375 72.6667 187.125 72.25L188.375 72.375ZM182.75 69.875C181.917 69.875 181.458 69.875 181.375 69.875C180.625 70.2917 180.208 70.4583 180.125 70.375C180.042 70.2083 179.875 70.1667 179.625 70.25C180.125 70.6667 180.583 70.8333 181 70.75C181.5 70.5833 182.083 70.2917 182.75 69.875ZM173.625 65.375C173.208 65.625 172.792 65.6667 172.375 65.5C172.042 65.3333 171.833 65.4583 171.75 65.875C172.667 65.875 173.292 65.7083 173.625 65.375ZM187.875 77.375C188.042 76.9583 188.042 76.5833 187.875 76.25C187.708 75.8333 187.708 75.4167 187.875 75C187.458 74.9167 187.167 74.875 187 74.875C186.917 74.7917 186.708 74.8333 186.375 75C186.125 75.5833 185.875 76.0417 185.625 76.375C185.458 76.625 185.167 76.8333 184.75 77C184 77.1667 183.583 77.2917 183.5 77.375C183.417 77.375 183.292 77.4167 183.125 77.5C182.625 78.5 182.125 79.125 181.625 79.375C181.208 79.5417 180.917 79.9167 180.75 80.5C181.25 80.3333 181.667 80.1667 182 80C182.417 79.75 182.875 79.75 183.375 80C183.375 79.4167 183.583 79.2083 184 79.375C184.5 79.4583 184.792 79.25 184.875 78.75C185.208 78.5 185.583 78.1667 186 77.75C186.5 77.3333 187.125 77.2083 187.875 77.375ZM183 75.75C182.583 75.9167 182.292 75.9167 182.125 75.75C182.042 75.5833 181.875 75.4583 181.625 75.375C181.625 75.5417 181.625 75.7917 181.625 76.125C181.625 76.375 181.5 76.5833 181.25 76.75C180.583 77 180.125 77.125 179.875 77.125C179.708 77.125 179.625 77.2083 179.625 77.375C180.042 77.4583 180.458 77.5 180.875 77.5C181.375 77.4167 181.708 77.5833 181.875 78C181.792 76.8333 181.833 76.2917 182 76.375C182.167 76.375 182.333 76.375 182.5 76.375L183 75.75ZM177.625 72.75C177.292 72.5 176.958 72.4167 176.625 72.5C176.292 72.5 176.125 72.6667 176.125 73C176.458 73 176.708 73.0417 176.875 73.125C177.125 73.125 177.375 73 177.625 72.75ZM172.875 70.375C172.625 70.7083 172.292 70.75 171.875 70.5C171.542 70.25 171.292 70.25 171.125 70.5C171.875 71 172.292 71.2083 172.375 71.125C172.458 71.0417 172.583 71 172.75 71L172.875 70.375ZM181.375 80.875C180.542 81.0417 179.917 81.125 179.5 81.125C179.167 81.125 178.958 81.25 178.875 81.5C179.792 81.75 180.25 81.7917 180.25 81.625C180.333 81.375 180.458 81.2083 180.625 81.125L181.375 80.875ZM182 82C181.25 82.3333 180.833 82.5 180.75 82.5C180.667 82.4167 180.542 82.375 180.375 82.375C180.375 83.2083 180.583 83.4583 181 83.125C181.5 82.7917 181.833 82.4167 182 82ZM180.5 79.25C180.583 78.4167 180.542 77.9583 180.375 77.875C180.292 77.7917 180.125 77.7917 179.875 77.875C179.625 77.875 179.375 77.9583 179.125 78.125C178.875 78.2083 178.75 78.3333 178.75 78.5C178.333 78.3333 177.958 78.4583 177.625 78.875C177.375 79.2083 177 79.4167 176.5 79.5C175.917 80.25 175.5 80.625 175.25 80.625C175.083 80.625 174.958 80.7083 174.875 80.875C174.208 81.625 173.458 82.25 172.625 82.75C171.875 83.1667 171.583 83.9167 171.75 85C172.167 85 172.417 84.9167 172.5 84.75C172.667 84.5833 172.833 84.375 173 84.125C173.333 84.5417 173.5 84.5833 173.5 84.25C173.583 83.8333 173.875 83.6667 174.375 83.75C174.875 83.3333 175.125 83.0417 175.125 82.875C175.125 82.7083 175.208 82.5417 175.375 82.375C175.875 82.0417 176.167 81.7917 176.25 81.625C176.417 81.4583 176.583 81.3333 176.75 81.25C177 81.5 177.167 81.625 177.25 81.625C177.417 81.625 177.708 81.75 178.125 82C178.542 81.3333 178.75 80.9167 178.75 80.75C178.75 80.5833 178.875 80.5417 179.125 80.625C179.208 80.5417 179.042 80.5417 178.625 80.625C178.292 80.625 178 80.7083 177.75 80.875C177.75 80.2083 177.958 79.7917 178.375 79.625C178.875 79.4583 179.292 79.2083 179.625 78.875L180.5 79.25ZM146.625 52.25C146.125 51.6667 145.792 51.4167 145.625 51.5C145.458 51.5833 145.208 51.625 144.875 51.625C145.458 52.2083 145.792 52.375 145.875 52.125C146.042 51.7917 146.292 51.8333 146.625 52.25ZM146.75 53C146.583 52.75 146.25 52.625 145.75 52.625C145.25 52.5417 145 52.7083 145 53.125C145.417 53.0417 146 53 146.75 53ZM148.75 48.125C147.833 47.7917 147.292 47.5417 147.125 47.375C146.375 47.625 145.75 47.9583 145.25 48.375C144.833 48.7917 144.292 49.0417 143.625 49.125C143.792 49.5417 143.625 49.8333 143.125 50C142.708 50.0833 142.417 50.0833 142.25 50C142.083 50.5 141.917 50.7917 141.75 50.875C141.667 50.9583 141.417 50.9583 141 50.875C140.833 51.2083 140.625 51.5417 140.375 51.875C140.208 52.125 139.875 52.3333 139.375 52.5C138.875 52.5 138.417 52.5417 138 52.625C137.833 52.2083 137.583 52.0833 137.25 52.25C137 52.4167 136.875 52.2083 136.875 51.625C137.292 51.7083 137.625 51.7083 137.875 51.625C138.208 51.5417 138.542 51.4583 138.875 51.375C138.542 50.7083 138.625 50.2083 139.125 49.875C139.625 49.5417 140.125 49.1667 140.625 48.75C140.375 48.5833 140.125 48.5833 139.875 48.75C139.625 48.9167 139.417 48.9167 139.25 48.75C139.25 48.3333 139.417 48.125 139.75 48.125C140.083 48.0417 140.25 47.7917 140.25 47.375C139.667 47.2917 139 47.3333 138.25 47.5C137.5 47.5833 136.917 47.7083 136.5 47.875C136.417 48.2917 136.417 48.625 136.5 48.875C136.667 49.0417 136.833 49.2917 137 49.625C136.75 49.875 136.542 50.25 136.375 50.75C136.292 51.25 136.25 51.7917 136.25 52.375C136.25 52.875 136.333 53.2917 136.5 53.625C136.75 53.9583 137.125 54.0417 137.625 53.875C137.208 54.5417 137.083 54.9167 137.25 55C137.5 55 137.667 55.0833 137.75 55.25C137.25 55.5 137 55.8333 137 56.25C137 56.5833 137.083 56.75 137.25 56.75C137.417 56.3333 137.625 56.25 137.875 56.5C138.208 56.6667 138.542 56.5833 138.875 56.25C139.708 55.8333 140.417 55.6667 141 55.75C141.667 55.8333 142.125 55.7917 142.375 55.625C142.208 55.625 142 55.625 141.75 55.625C141.583 55.5417 141.333 55.5 141 55.5C141.75 54.4167 141.917 53.8333 141.5 53.75C141.917 53.25 142.208 52.875 142.375 52.625C142.542 52.375 142.708 52.1667 142.875 52C143.042 51.75 143.208 51.5417 143.375 51.375C143.542 51.2083 143.625 51.0417 143.625 50.875C144.542 50.7917 145.167 50.6667 145.5 50.5C145.833 50.3333 146.25 50.3333 146.75 50.5C146.833 50.25 146.792 50 146.625 49.75C146.458 49.5 146.5 49.2917 146.75 49.125C147.5 48.5417 147.958 48.25 148.125 48.25C148.375 48.25 148.583 48.2083 148.75 48.125ZM179.5 85.25C179.25 85 179.208 84.7917 179.375 84.625C179.625 84.4583 179.625 84.1667 179.375 83.75C178.875 83.8333 178.458 84.0417 178.125 84.375C177.875 84.7083 177.542 84.9583 177.125 85.125C177.542 84.2917 177.667 83.875 177.5 83.875C177.333 83.7917 177.375 83.6667 177.625 83.5C178.208 83.6667 178.583 83.6667 178.75 83.5C178.917 83.25 179.125 83.0833 179.375 83C179.125 82.8333 178.833 82.7917 178.5 82.875C178.167 82.875 177.833 82.8333 177.5 82.75C176.667 83.3333 176.125 83.8333 175.875 84.25C175.708 84.5833 175.5 84.9167 175.25 85.25C175.917 85.5 176.458 85.4167 176.875 85C176.875 85.5833 176.75 85.9167 176.5 86C176.25 86 175.958 86.0417 175.625 86.125C175.208 86.7917 174.667 87.375 174 87.875C173.417 88.2917 172.792 88.7083 172.125 89.125C171.958 89.7917 171.917 90.4583 172 91.125C172.083 91.7083 172.042 92.25 171.875 92.75C172.542 92.0833 173.167 91.5417 173.75 91.125C174.417 90.625 174.958 89.9167 175.375 89C176.042 88.5 176.375 88.25 176.375 88.25C176.458 88.1667 176.458 88 176.375 87.75C176.708 87.6667 177 87.5 177.25 87.25C177.5 87 177.833 86.875 178.25 86.875C178.583 86.2917 178.792 85.9167 178.875 85.75C179.042 85.5833 179.25 85.4167 179.5 85.25ZM187.875 80C187.458 80 187.167 80.125 187 80.375C186.833 80.625 186.5 80.75 186 80.75C186 81.4167 185.625 81.7917 184.875 81.875C184.625 82.4583 184.25 82.9583 183.75 83.375C183.333 83.7917 182.875 84.2083 182.375 84.625C181.875 84.9583 181.417 85.375 181 85.875C180.583 86.2917 180.25 86.8333 180 87.5C178.667 88.5833 177.458 89.5833 176.375 90.5C175.292 91.3333 174.292 92.3333 173.375 93.5C173.042 94.4167 172.917 94.875 173 94.875C173.167 94.875 173.25 94.9583 173.25 95.125C172.667 95.4583 172.208 95.9583 171.875 96.625C171.542 97.2083 171.458 98.0417 171.625 99.125C172.375 99.2917 172.75 99.5 172.75 99.75C172.833 99.9167 172.75 100.083 172.5 100.25C172 101.083 171.708 101.917 171.625 102.75C171.542 103.5 171.542 104.292 171.625 105.125C172.292 105.208 172.792 105.333 173.125 105.5C173.458 105.667 173.833 105.833 174.25 106C174.167 106.333 173.958 106.5 173.625 106.5C173.292 106.5 173.042 106.583 172.875 106.75C172.792 107 172.667 107.25 172.5 107.5C172.333 107.75 172.208 108 172.125 108.25C172.042 108.5 172 108.75 172 109C172.083 109.167 172.333 109.333 172.75 109.5C172.583 108.833 172.667 108.5 173 108.5C173.417 108.417 173.792 108.292 174.125 108.125C174.458 107.542 174.75 107.042 175 106.625C175.333 106.208 175.792 106.083 176.375 106.25C176.458 105.333 176.542 104.833 176.625 104.75C176.792 104.667 176.833 104.5 176.75 104.25C177.333 103.417 177.75 103.042 178 103.125C178.333 103.125 178.583 102.917 178.75 102.5C178.75 102.25 179 101.958 179.5 101.625C180 101.292 180.583 101.208 181.25 101.375C180.833 100.542 180.75 100 181 99.75C181.25 99.5 181.5 99.2917 181.75 99.125C182.417 99.2917 182.833 99.4167 183 99.5C183.167 99.5 183.292 99.4167 183.375 99.25C183.292 99 183.042 98.9167 182.625 99C182.208 99.0833 181.917 99.0417 181.75 98.875C182.083 98.4583 182.417 98.2083 182.75 98.125C183.167 98.0417 183.583 97.875 184 97.625C184.417 97.7083 184.708 97.6667 184.875 97.5C185.042 97.3333 185.25 97.1667 185.5 97C186 96.4167 186.292 96 186.375 95.75C186.542 95.5 186.833 95.375 187.25 95.375C187.25 94.7083 187.25 94.0833 187.25 93.5C187.333 92.8333 187.167 92.4167 186.75 92.25C187.167 91.5 187.458 90.7917 187.625 90.125C187.875 89.375 187.917 88.5 187.75 87.5C186.917 87.9167 186.167 88.4167 185.5 89C184.917 89.5 184.292 90 183.625 90.5C183.708 90.25 183.667 90.0417 183.5 89.875C183.417 89.7083 183.333 89.4583 183.25 89.125C183.75 89.0417 184 88.8333 184 88.5C184.083 88.1667 184.333 87.8333 184.75 87.5C185.25 86.6667 185.417 86.2083 185.25 86.125C185.167 86.0417 185.167 85.9167 185.25 85.75C185.75 85.5 186.042 85.4583 186.125 85.625C186.208 85.7083 186.375 85.75 186.625 85.75C186.875 84.8333 187.25 83.9583 187.75 83.125C188.333 82.2083 188.375 81.1667 187.875 80ZM186.875 98.75C185.958 99.1667 185.167 99.6667 184.5 100.25C183.917 100.833 183.333 101.458 182.75 102.125C183 102.292 183.25 102.375 183.5 102.375C183.75 102.292 184 102.208 184.25 102.125C184.5 101.958 184.75 101.833 185 101.75C185.25 101.667 185.542 101.667 185.875 101.75C185.958 101.417 186.042 101.167 186.125 101C186.292 100.75 186.292 100.458 186.125 100.125C186.375 99.9583 186.583 99.7917 186.75 99.625C186.917 99.4583 186.958 99.1667 186.875 98.75ZM146.625 56.5C146.292 56.5 145.958 56.5417 145.625 56.625C145.375 56.625 145.25 56.75 145.25 57C144.417 57.9167 143.917 58.5417 143.75 58.875C143.583 59.125 143.375 59.375 143.125 59.625C142.542 59.5417 142.167 59.6667 142 60C141.833 60.25 141.5 60.3333 141 60.25C140.417 61.25 139.75 62.125 139 62.875C139.083 63.2083 139 63.5417 138.75 63.875C138.583 64.2083 138.292 64.2917 137.875 64.125C138.042 64.5417 138.25 64.7083 138.5 64.625C138.833 64.4583 139.083 64.5417 139.25 64.875C139.333 64.375 139.542 63.9583 139.875 63.625C140.208 63.2917 140.667 63.2917 141.25 63.625C141.583 63.0417 142.125 62.7917 142.875 62.875C144.042 61.7083 144.833 60.625 145.25 59.625C145.75 58.625 146.208 57.5833 146.625 56.5ZM181.875 103.75C181.208 103.417 180.708 103.375 180.375 103.625C180.125 103.792 179.75 103.958 179.25 104.125C180 104.375 180.583 104.5 181 104.5C181.417 104.417 181.708 104.167 181.875 103.75ZM139.25 61.5C138.75 61 138.292 60.9167 137.875 61.25C137.458 61.5 137.042 61.7083 136.625 61.875C136.875 62.0417 136.875 62.2917 136.625 62.625C136.458 62.875 136.5 63.0833 136.75 63.25C137.167 63 137.5 62.6667 137.75 62.25C138.083 61.8333 138.583 61.5833 139.25 61.5ZM182 104.625L181 105.625C179.5 106.375 178.5 107.125 178 107.875C177.583 108.542 176.958 108.875 176.125 108.875C175.625 109.542 175 110.25 174.25 111C173.5 111.667 172.792 112.375 172.125 113.125C172.375 113.625 172.375 114.083 172.125 114.5C172.875 113.75 173.458 113.208 173.875 112.875C174.375 112.458 174.958 112.167 175.625 112C176.792 110.917 177.583 110 178 109.25C178.417 108.5 179 108.125 179.75 108.125C179.667 107.708 179.708 107.375 179.875 107.125C180.042 106.792 180.25 106.542 180.5 106.375C180.833 106.125 181.125 105.875 181.375 105.625C181.708 105.375 181.917 105.042 182 104.625ZM187 108.375C186.583 107.958 186.208 107.875 185.875 108.125C185.542 108.375 185.125 108.583 184.625 108.75C184.625 109.083 184.5 109.375 184.25 109.625C184 109.792 183.792 109.833 183.625 109.75C183.625 109.167 183.458 108.958 183.125 109.125C182.875 109.208 182.583 109.25 182.25 109.25C182.917 109.75 183.25 110.125 183.25 110.375C183.25 110.625 183.125 110.75 182.875 110.75C182.625 110.583 182.375 110.417 182.125 110.25C181.958 110 181.75 110 181.5 110.25C181.5 109.5 181.625 109.125 181.875 109.125C182.125 109.125 182.417 109.083 182.75 109C183 108.333 183.542 107.917 184.375 107.75C185.292 107.5 186.083 107.417 186.75 107.5C186.417 106.917 186.292 106.542 186.375 106.375C186.458 106.208 186.625 106.083 186.875 106C186.958 105.583 186.917 105.25 186.75 105C186.667 104.75 186.708 104.5 186.875 104.25C186.292 104.083 185.75 104.042 185.25 104.125C184.833 104.208 184.542 104.458 184.375 104.875C183.458 105.375 183.042 105.708 183.125 105.875C183.292 106.042 183.375 106.25 183.375 106.5C182.792 106.667 182.458 106.833 182.375 107C182.375 107.167 182.292 107.333 182.125 107.5C181.708 107.25 181.417 107.333 181.25 107.75C181.167 108.083 180.917 108.208 180.5 108.125C180.333 109.042 180.125 109.5 179.875 109.5C179.708 109.417 179.542 109.458 179.375 109.625C179.208 110.375 178.958 110.792 178.625 110.875C178.375 110.958 178.25 111.208 178.25 111.625C178.667 111.375 179.042 111.292 179.375 111.375C179.792 111.458 180.208 111.583 180.625 111.75C180.792 111.333 181.042 111.042 181.375 110.875C181.792 110.625 182.083 110.708 182.25 111.125C181.667 111.292 181.167 111.583 180.75 112C180.417 112.417 179.875 112.667 179.125 112.75C178.875 113.417 178.417 113.792 177.75 113.875C177.167 113.958 176.75 114.375 176.5 115.125C176 115.792 175.458 116.208 174.875 116.375C174.375 116.458 174 116.708 173.75 117.125C173.083 117.625 172.625 118.042 172.375 118.375C172.125 118.708 171.958 119.125 171.875 119.625C171.875 120.042 171.875 120.542 171.875 121.125C171.958 121.625 171.917 122.125 171.75 122.625C172.417 122.125 172.875 121.75 173.125 121.5C173.458 121.167 173.75 120.875 174 120.625C174.333 120.292 174.667 120.042 175 119.875C175.333 119.708 175.75 119.667 176.25 119.75C176.25 119.583 176.25 119.375 176.25 119.125C176.333 118.792 176.458 118.542 176.625 118.375C177.625 118.042 178.167 117.958 178.25 118.125C178.333 118.292 178.5 118.458 178.75 118.625C178.917 118.208 178.792 117.958 178.375 117.875C178.042 117.708 177.792 117.542 177.625 117.375C177.875 117.292 178.042 117.167 178.125 117C178.292 116.75 178.583 116.625 179 116.625C179.25 116.042 179.417 115.708 179.5 115.625C179.667 115.458 179.875 115.417 180.125 115.5C180.125 114.833 180.417 114.5 181 114.5C181.583 114.417 181.958 114.208 182.125 113.875C183.042 113.542 183.667 113.167 184 112.75C184.417 112.25 184.958 111.917 185.625 111.75C185.625 110.75 185.792 110.083 186.125 109.75C186.542 109.417 186.833 108.958 187 108.375ZM187.625 132.25C187.208 131.833 187.042 131.292 187.125 130.625C187.292 129.875 187.167 129.208 186.75 128.625C186.917 128.042 187.042 127.417 187.125 126.75C187.292 126 187.167 125.375 186.75 124.875C185.917 125.708 185.208 126.042 184.625 125.875C184.542 126.125 184.458 126.375 184.375 126.625C184.292 126.875 184.208 127.125 184.125 127.375C184.875 127.208 185.417 127.292 185.75 127.625C186.167 127.875 186.375 128.208 186.375 128.625C186.375 128.958 186.208 129.333 185.875 129.75C185.625 130.083 185.208 130.25 184.625 130.25C184.625 130.667 184.583 130.958 184.5 131.125C184.417 131.292 184.333 131.458 184.25 131.625C184.667 131.958 185.042 132.125 185.375 132.125C185.792 132.042 186.167 132.208 186.5 132.625L187.625 132.25ZM176.625 120.375C176.042 120.625 175.625 120.75 175.375 120.75C175.125 120.667 175.042 120.75 175.125 121C176.042 120.917 176.5 120.833 176.5 120.75C176.5 120.583 176.542 120.458 176.625 120.375ZM189.625 137.125C189.958 136.708 190.042 136.292 189.875 135.875C189.792 135.375 189.417 135.167 188.75 135.25C188.833 135.667 188.792 135.958 188.625 136.125C188.542 136.208 188.5 136.417 188.5 136.75L189.625 137.125ZM187.25 119.125C187.083 118.958 186.917 118.792 186.75 118.625C186.667 118.375 186.458 118.25 186.125 118.25C185.958 118.667 185.667 118.875 185.25 118.875C184.833 118.875 184.542 118.958 184.375 119.125C184.125 118.375 184.333 117.833 185 117.5C185.667 117.167 186.208 116.583 186.625 115.75C186.292 115.75 186 115.792 185.75 115.875C185.5 115.875 185.292 115.875 185.125 115.875C185.292 115.542 185.75 115.417 186.5 115.5C186.583 115.083 186.542 114.75 186.375 114.5C186.208 114.167 186.333 113.833 186.75 113.5C185.75 113.167 185.208 112.917 185.125 112.75C185.125 112.583 185 112.583 184.75 112.75C184.5 113.25 184.125 113.667 183.625 114C183.208 114.333 182.75 114.708 182.25 115.125C181.75 115.542 181.167 115.75 180.5 115.75C179.75 116.75 179.292 117.458 179.125 117.875C179.708 118.125 180.125 118.125 180.375 117.875C180.708 117.625 181.083 117.5 181.5 117.5C181.25 118.25 181.042 118.667 180.875 118.75C180.792 118.75 180.792 118.875 180.875 119.125C180.208 119.375 179.875 119.583 179.875 119.75C179.875 119.917 179.792 120.083 179.625 120.25C179.125 119.75 178.75 119.583 178.5 119.75C178.333 119.833 178.25 120.083 178.25 120.5C178.667 120.833 178.667 121.042 178.25 121.125C177.917 121.208 177.542 121.292 177.125 121.375C176.792 121.458 176.5 121.625 176.25 121.875C176.083 122.042 176.083 122.417 176.25 123C175.417 123.417 174.792 123.792 174.375 124.125C174.042 124.458 173.667 124.833 173.25 125.25C172.917 125.583 172.583 126 172.25 126.5C172 126.917 171.875 127.458 171.875 128.125C172.042 127.792 172.25 127.708 172.5 127.875C172.75 128.042 173 128.083 173.25 128C174.083 128.25 174.375 128.5 174.125 128.75C173.875 128.917 173.875 129.083 174.125 129.25C174.125 130.083 174.083 130.625 174 130.875C173.417 131.042 173.083 131.167 173 131.25C172.917 131.333 172.792 131.375 172.625 131.375C172.042 132.625 171.25 133.583 170.25 134.25C169.25 134.917 168.333 135.708 167.5 136.625C168 136.875 168.458 136.708 168.875 136.125C169.375 135.542 170 135.25 170.75 135.25C171.667 134.083 172.667 133.125 173.75 132.375C174.917 131.625 176.042 130.792 177.125 129.875C177.958 129.542 178.625 129.208 179.125 128.875C179.708 128.542 180.125 128.375 180.375 128.375C181.125 127.542 181.583 127.25 181.75 127.5C182 127.667 182.125 127.583 182.125 127.25C182.542 126.167 183 125.458 183.5 125.125C184 124.708 184.542 124.583 185.125 124.75C185.125 124.333 184.917 124.167 184.5 124.25C184.167 124.25 183.958 124.125 183.875 123.875C184.708 124.042 185.208 124 185.375 123.75C185.875 123.25 186.042 122.917 185.875 122.75C185.792 122.583 185.667 122.458 185.5 122.375C186.167 122.125 186.458 121.958 186.375 121.875C186.292 121.792 186.292 121.583 186.375 121.25C186.792 121.417 187 121.167 187 120.5C187 119.833 187.083 119.375 187.25 119.125ZM184 131.625C183.583 131.375 183.25 131.125 183 130.875C182.75 130.625 182.5 130.708 182.25 131.125C182.917 131.542 183.208 131.875 183.125 132.125C183.125 132.375 183.042 132.5 182.875 132.5C183.375 132.75 183.75 132.458 184 131.625ZM188.125 134C187.875 133.833 187.708 133.667 187.625 133.5C187.542 133.25 187.333 133.083 187 133C185.833 132.833 185.375 132.958 185.625 133.375C184.875 133.625 184.458 133.708 184.375 133.625C184.292 133.542 184.167 133.5 184 133.5C182.917 134.083 182.125 134.667 181.625 135.25C181.125 135.75 180.458 136.167 179.625 136.5C179.875 136.917 180.25 137.167 180.75 137.25C181.333 137.333 181.917 137.333 182.5 137.25C183.167 137.167 183.792 137.083 184.375 137C184.958 136.917 185.458 136.917 185.875 137C186.292 136.417 186.583 135.875 186.75 135.375C187 134.875 187.458 134.417 188.125 134ZM184.625 128.875C184.292 128.292 184.042 128 183.875 128C183.708 127.917 183.542 127.958 183.375 128.125C183.042 129.375 182.542 130.042 181.875 130.125C181.208 130.125 180.667 130.333 180.25 130.75C180.167 131 179.833 131.333 179.25 131.75C178.75 132.083 178.292 132.208 177.875 132.125C177.125 132.708 176.792 133.083 176.875 133.25C177.042 133.417 177.042 133.5 176.875 133.5C176.292 133.417 175.833 133.583 175.5 134C175.25 134.333 174.917 134.5 174.5 134.5C174.167 134.75 173.917 135.042 173.75 135.375C173.667 135.625 173.375 135.625 172.875 135.375C173.042 135.792 173.125 136.125 173.125 136.375C173.125 136.625 173.042 136.833 172.875 137C173.208 137.25 173.542 137.292 173.875 137.125C174.208 136.958 174.5 136.792 174.75 136.625C175.083 136.375 175.417 136.167 175.75 136C176.083 135.833 176.5 135.833 177 136C177.25 135.833 177.542 135.667 177.875 135.5C178.292 135.25 178.292 135 177.875 134.75C178.292 134.25 178.667 133.958 179 133.875C179.417 133.792 179.583 133.583 179.5 133.25C179.5 132.917 179.583 132.708 179.75 132.625C180.667 132.708 181.083 132.708 181 132.625C181 132.458 181.208 132.417 181.625 132.5C181.708 131.417 181.958 130.833 182.375 130.75C182.875 130.583 183.25 130.333 183.5 130C183.917 130 184.167 129.917 184.25 129.75C184.333 129.583 184.458 129.292 184.625 128.875ZM173.25 130C173.333 129.833 173.417 129.583 173.5 129.25C173.667 128.917 173.583 128.708 173.25 128.625C173.083 129.125 173 129.5 173 129.75C173 129.917 173.083 130 173.25 130ZM186.125 49.375C185.958 50.125 185.542 50.6667 184.875 51C184.292 51.3333 183.792 51.7917 183.375 52.375C182.042 52.7917 181.208 53.3333 180.875 54C180.625 54.5833 180.042 54.875 179.125 54.875C178.542 55.4583 177.833 55.8333 177 56C176.583 57.0833 176.125 57.7083 175.625 57.875C175.125 58.0417 174.708 58.2083 174.375 58.375C174.875 57.4583 175.042 57 174.875 57C174.792 56.9167 174.792 56.7917 174.875 56.625C175.292 56.625 175.708 56.3333 176.125 55.75C175.792 54.9167 175.875 54.625 176.375 54.875C176.875 55.0417 177.083 54.8333 177 54.25C177.333 54.4167 177.542 54.5417 177.625 54.625C177.708 54.625 177.917 54.7083 178.25 54.875C178.583 54.2083 178.75 53.75 178.75 53.5C178.833 53.25 179.083 53.1667 179.5 53.25C179.917 52.6667 180.083 52.3333 180 52.25C180 52.1667 180.083 51.9167 180.25 51.5C180.583 51.5833 180.833 51.7083 181 51.875C181.25 51.9583 181.542 51.9167 181.875 51.75C181.792 50.9167 182 50.4583 182.5 50.375C183.083 50.2083 183.583 50.2917 184 50.625C183.833 50.2917 183.792 50.0833 183.875 50C183.958 49.8333 183.958 49.5833 183.875 49.25C184.292 49.3333 184.708 49.3333 185.125 49.25C185.542 49.0833 185.875 49.125 186.125 49.375ZM179.25 57.75C179.083 57.9167 178.833 58 178.5 58C178.25 57.9167 178.042 57.9583 177.875 58.125C178.458 57.5417 178.792 57.3333 178.875 57.5C178.958 57.5833 179.083 57.6667 179.25 57.75ZM175.125 55C174.708 55.1667 174.5 55.4167 174.5 55.75C174.5 56 174.5 56.25 174.5 56.5C174.25 56 174.125 55.7083 174.125 55.625C174.208 55.5417 174.208 55.2917 174.125 54.875L175.125 55ZM179.75 62C179.333 61.9167 179.125 62.0417 179.125 62.375C179.125 62.625 178.917 62.75 178.5 62.75C179.333 61.9167 179.75 61.6667 179.75 62ZM173.75 56.375C173.5 56.5417 173.25 56.7083 173 56.875C172.833 56.9583 172.625 57 172.375 57C172.625 56.3333 172.833 56.0417 173 56.125C173.25 56.2083 173.5 56.2917 173.75 56.375ZM185.125 71.875C184.875 72.0417 184.542 72.125 184.125 72.125C183.708 72.125 183.375 72.0417 183.125 71.875C183.875 71.7083 184.25 71.5417 184.25 71.375C184.333 71.2083 184.458 71.0833 184.625 71L185.125 71.875ZM180.875 72.75C181.042 73.1667 180.917 73.3333 180.5 73.25C180.167 73.1667 179.833 73.1667 179.5 73.25C179.833 73.1667 180.042 73.0417 180.125 72.875C180.292 72.7083 180.542 72.6667 180.875 72.75ZM185.375 93.875C184.292 94.2083 183.667 94.6667 183.5 95.25C183.75 94.75 184 94.375 184.25 94.125C184.583 93.7917 184.958 93.7083 185.375 93.875ZM183.25 90.375C182.5 90.5417 182.083 90.875 182 91.375C181.917 91.875 181.792 92.2083 181.625 92.375C181.125 92.7083 180.583 93.0417 180 93.375C179.5 93.625 178.917 93.8333 178.25 94C178.167 93.6667 178.375 93.4167 178.875 93.25C179.375 93 179.833 92.8333 180.25 92.75C180.417 92.5833 180.583 92.375 180.75 92.125C180.917 91.7917 181.208 91.75 181.625 92C181.208 91.5833 181.208 91.125 181.625 90.625C182.042 90.125 182.583 90.0417 183.25 90.375ZM180.375 97.375C179.875 98.0417 179.583 98.4167 179.5 98.5C179.417 98.5833 179.292 98.625 179.125 98.625C179.375 98.2083 179.583 97.9583 179.75 97.875C179.917 97.7917 180 97.625 180 97.375H180.375ZM178.5 100.25C177.833 100.417 177.208 100.542 176.625 100.625C177.125 100.625 177.5 100.5 177.75 100.25C178 99.9167 178.25 99.9167 178.5 100.25ZM176.5 101.375C176.75 101.708 176.625 101.958 176.125 102.125C175.625 102.208 175.292 102.125 175.125 101.875C175.708 101.792 176.167 101.625 176.5 101.375ZM184.625 116.875C183.792 117.042 183.25 117.125 183 117.125C182.833 117.042 182.75 116.875 182.75 116.625C183.167 116.792 183.458 116.917 183.625 117C183.875 117 184.208 116.958 184.625 116.875ZM184.5 120C184.333 120.417 184.042 120.667 183.625 120.75C183.208 120.75 182.917 120.875 182.75 121.125C182.5 120.958 182.292 120.792 182.125 120.625C181.958 120.458 181.667 120.458 181.25 120.625C181.333 119.792 181.75 119.458 182.5 119.625C183.333 119.708 184 119.833 184.5 120ZM183.5 124.375C183.333 124.625 183.083 124.792 182.75 124.875C182.5 124.958 182.167 125.042 181.75 125.125C182.25 124.875 182.542 124.667 182.625 124.5C182.708 124.333 183 124.292 183.5 124.375ZM182.125 122C181.625 122.583 181.167 123 180.75 123.25C180.333 123.5 180 123.833 179.75 124.25C180.333 124.083 181.042 123.917 181.875 123.75C181.875 124.333 181.625 124.667 181.125 124.75C180.708 124.833 180.417 125.083 180.25 125.5C179.667 125 179.417 124.708 179.5 124.625C179.667 124.458 179.667 124.333 179.5 124.25C179.083 124.5 178.625 124.583 178.125 124.5C177.625 124.417 177.167 124.583 176.75 125C177.5 124.333 178.125 123.792 178.625 123.375C179.208 122.958 179.875 122.5 180.625 122C180.542 121.167 180.667 120.875 181 121.125C181.333 121.375 181.708 121.417 182.125 121.25V122ZM178.375 127.25C178.042 127.167 177.833 127.125 177.75 127.125C177.667 127.125 177.417 127.167 177 127.25C176.333 127.583 176.167 128.042 176.5 128.625C176.083 128.958 175.792 128.958 175.625 128.625C175.542 128.208 175.292 128.125 174.875 128.375C175.792 127.958 176.292 127.5 176.375 127C175.792 126.083 175.583 125.625 175.75 125.625C175.917 125.542 176.083 125.5 176.25 125.5C176.5 125.5 176.708 125.5 176.875 125.5C177.042 125.417 177.125 125.25 177.125 125C177.625 125.5 177.792 125.792 177.625 125.875C177.542 125.958 177.542 126.125 177.625 126.375L178.375 127.25Z" fill="black" fill-opacity="0.75"/>
<defs>
<filter id="filter0_d_10_27" x="46.8906" y="196.586" width="230.68" height="61.5312" filterUnits="userSpaceOnUse" color-interpolation-filters="sRGB">
<feFlood flood-opacity="0" result="BackgroundImageFix"/>
<feColorMatrix in="SourceAlpha" type="matrix" values="0 0 0 0 0 0 0 0 0 0 0 0 0 0 0 0 0 0 127 0" result="hardAlpha"/>
<feOffset dy="4"/>
<feGaussianBlur stdDeviation="2"/>
<feComposite in2="hardAlpha" operator="out"/>
<feColorMatrix type="matrix" values="0 0 0 0 0 0 0 0 0 0 0 0 0 0 0 0 0 0 0.25 0"/>
<feBlend mode="normal" in2="BackgroundImageFix" result="effect1_dropShadow_10_27"/>
<feBlend mode="normal" in="SourceGraphic" in2="effect1_dropShadow_10_27" result="shape"/>
</filter>
<filter id="filter1_i_10_27" x="98.64" y="47.4" width="96.3359" height="93.6" filterUnits="userSpaceOnUse" color-interpolation-filters="sRGB">
<feFlood flood-opacity="0" result="BackgroundImageFix"/>
<feBlend mode="normal" in="SourceGraphic" in2="BackgroundImageFix" result="shape"/>
<feColorMatrix in="SourceAlpha" type="matrix" values="0 0 0 0 0 0 0 0 0 0 0 0 0 0 0 0 0 0 127 0" result="hardAlpha"/>
<feOffset dx="2" dy="4"/>
<feGaussianBlur stdDeviation="4"/>
<feComposite in2="hardAlpha" operator="arithmetic" k2="-1" k3="1"/>
<feColorMatrix type="matrix" values="0 0 0 0 0 0 0 0 0 0 0 0 0 0 0 0 0 0 0.5 0"/>
<feBlend mode="normal" in2="shape" result="effect1_innerShadow_10_27"/>
</filter>
<linearGradient id="paint0_linear_10_27" x1="322" y1="241" x2="48" y2="30" gradientUnits="userSpaceOnUse">
<stop offset="0.697917" stop-color="#6D071A"/>
<stop offset="0.9998" stop-color="#DA6B80"/>
<stop offset="0.9999" stop-color="#6D071A" stop-opacity="0.0989583"/>
<stop offset="1" stop-color="#E4E1E1" stop-opacity="0"/>
</linearGradient>
</defs>
</svg>
